<svg width="14" height="14" viewBox="0 0 14 14" fill="none" xmlns="http://www.w3.org/2000/svg">
<path d="M0.797893 14C0.593734 14 0.389576 13.9219 0.233267 13.7672C-0.0777556 13.4562 -0.0777556 12.9506 0.233267 12.6396L12.6391 0.234842C12.9501 -0.0761542 13.4557 -0.0761542 13.7667 0.234842C14.0778 0.545838 14.0778 1.05141 13.7667 1.3624L1.36092 13.7672C1.20621 13.9219 1.00205 14 0.797893 14Z" fill="black"/>
<path d="M13.2037 14C12.9995 14 12.7954 13.9219 12.6391 13.7672L0.233267 1.36081C-0.0777556 1.04981 -0.0777556 0.544243 0.233267 0.233247C0.544289 -0.077749 1.0499 -0.077749 1.36092 0.233247L13.7667 12.638C14.0778 12.949 14.0778 13.4546 13.7667 13.7656C13.612 13.9219 13.4079 14 13.2037 14Z" fill="black"/>
</svg>
