<svg width="22" height="22" viewBox="0 0 22 22" fill="none" xmlns="http://www.w3.org/2000/svg">
<path d="M18.37 6.25122L13.09 2.55706C11.6508 1.54872 9.44166 1.60372 8.05749 2.67622L3.46499 6.26039C2.54832 6.97539 1.82416 8.44206 1.82416 9.59706V15.9221C1.82416 18.2596 3.72166 20.1662 6.05916 20.1662H15.9408C18.2783 20.1662 20.1758 18.2687 20.1758 15.9312V9.71622C20.1758 8.47872 19.3783 6.95706 18.37 6.25122ZM11.6875 16.4996C11.6875 16.8754 11.3758 17.1871 11 17.1871C10.6242 17.1871 10.3125 16.8754 10.3125 16.4996V13.7496C10.3125 13.3737 10.6242 13.0621 11 13.0621C11.3758 13.0621 11.6875 13.3737 11.6875 13.7496V16.4996Z" fill="#253E5E"/>
</svg>
