<svg width="38" height="38" viewBox="0 0 38 38" fill="none" xmlns="http://www.w3.org/2000/svg">
<path d="M11.8433 29.0542L16.7516 32.8542C17.3849 33.4875 18.8099 33.8042 19.7599 33.8042H25.7766C27.6766 33.8042 29.7349 32.3792 30.2099 30.4792L34.0099 18.9208C34.8016 16.7042 33.3766 14.8042 31.0016 14.8042H24.6683C23.7183 14.8042 22.9266 14.0125 23.0849 12.9042L23.8766 7.83749C24.1933 6.41249 23.2433 4.82916 21.8183 4.35416C20.5516 3.87916 18.9683 4.51249 18.3349 5.46249L11.8433 15.1208" stroke="#20AEEA" stroke-width="2" stroke-miterlimit="10"/>
<path d="M3.76831 29.0542V13.5375C3.76831 11.3208 4.71831 10.5292 6.93498 10.5292H8.51831C10.735 10.5292 11.685 11.3208 11.685 13.5375V29.0542C11.685 31.2708 10.735 32.0625 8.51831 32.0625H6.93498C4.71831 32.0625 3.76831 31.2708 3.76831 29.0542Z" stroke="#20AEEA" stroke-width="2" stroke-linecap="round" stroke-linejoin="round"/>
</svg>
