<svg xmlns="http://www.w3.org/2000/svg" xmlns:xlink="http://www.w3.org/1999/xlink" width="500" zoomAndPan="magnify" viewBox="0 0 375 374.999991" height="500" preserveAspectRatio="xMidYMid meet" version="1.0"><defs><clipPath id="022e53c9b1"><path d="M 180 117.691406 L 270.441406 117.691406 L 270.441406 257.304688 L 180 257.304688 Z M 180 117.691406 " clip-rule="nonzero"/></clipPath><clipPath id="01835361c8"><path d="M 104.574219 135 L 156 135 L 156 257.304688 L 104.574219 257.304688 Z M 104.574219 135 " clip-rule="nonzero"/></clipPath><clipPath id="e0983d5f9d"><path d="M 34 193 L 50 193 L 50 208 L 34 208 Z M 34 193 " clip-rule="nonzero"/></clipPath><clipPath id="a12360bdc2"><path d="M 27.578125 227.515625 L 21.90625 184.085938 L 65.335938 178.417969 L 71.007812 221.847656 Z M 27.578125 227.515625 " clip-rule="nonzero"/></clipPath><clipPath id="23faba25b3"><path d="M 32.289062 212.960938 L 29.480469 191.457031 L 50.988281 188.648438 L 53.796875 210.152344 Z M 32.289062 212.960938 " clip-rule="nonzero"/></clipPath><clipPath id="78b77d4d89"><path d="M 325 193 L 341 193 L 341 208 L 325 208 Z M 325 193 " clip-rule="nonzero"/></clipPath><clipPath id="801c16f8b5"><path d="M 346.507812 234.484375 L 352.179688 191.054688 L 308.75 185.386719 L 303.078125 228.816406 Z M 346.507812 234.484375 " clip-rule="nonzero"/></clipPath><clipPath id="0fd82c3dc2"><path d="M 342.707031 212.953125 L 345.515625 191.445312 L 324.007812 188.636719 L 321.199219 210.144531 Z M 342.707031 212.953125 " clip-rule="nonzero"/></clipPath></defs><path fill="#ffffff" d="M 31.03125 152.519531 L 58.484375 158.988281 L 59.324219 155.417969 L 31.871094 148.949219 L 31.03125 152.519531 M 53.207031 135.703125 C 53.652344 135.132812 54.082031 134.496094 54.503906 133.800781 C 54.925781 133.101562 55.324219 132.304688 55.695312 131.414062 C 56.324219 129.902344 56.671875 128.472656 56.738281 127.132812 C 56.800781 125.792969 56.628906 124.578125 56.222656 123.492188 C 55.816406 122.40625 55.21875 121.46875 54.429688 120.671875 C 53.640625 119.878906 52.699219 119.253906 51.609375 118.796875 C 50.570312 118.363281 49.5 118.121094 48.398438 118.070312 C 47.300781 118.019531 46.25 118.203125 45.25 118.613281 C 44.246094 119.027344 43.3125 119.675781 42.449219 120.566406 C 41.582031 121.457031 40.847656 122.625 40.25 124.0625 L 36.625 132.765625 L 62.660156 143.613281 L 64.070312 140.230469 L 53.207031 135.703125 M 39.671875 130.0625 L 41.296875 126.15625 C 41.730469 125.113281 42.300781 124.273438 43.003906 123.636719 C 43.703125 123 44.46875 122.546875 45.292969 122.277344 C 46.117188 122.011719 46.960938 121.902344 47.828125 121.957031 C 48.691406 122.011719 49.496094 122.195312 50.238281 122.503906 C 50.957031 122.804688 51.636719 123.226562 52.269531 123.765625 C 52.902344 124.304688 53.40625 124.960938 53.785156 125.730469 C 54.164062 126.496094 54.375 127.355469 54.414062 128.304688 C 54.457031 129.253906 54.246094 130.285156 53.78125 131.402344 C 53.460938 132.171875 53.132812 132.863281 52.804688 133.484375 C 52.472656 134.101562 52.097656 134.628906 51.683594 135.066406 L 39.671875 130.0625 M 75.285156 102.695312 L 84.335938 104.089844 L 86.507812 100.839844 L 55.753906 96.09375 L 54.636719 97.769531 L 71.464844 123.355469 L 72.496094 121.8125 L 67.5625 114.253906 L 75.285156 102.695312 M 73.308594 102.390625 L 66.480469 112.609375 L 58.410156 100.242188 L 58.5 100.109375 L 73.308594 102.390625 M 95.9375 92.234375 L 77.667969 73.75 L 85.351562 66.160156 L 83.792969 64.582031 L 65.824219 82.34375 L 67.378906 83.917969 L 75.0625 76.328125 L 93.332031 94.8125 L 95.9375 92.234375 M 115.605469 67.726562 C 116.167969 68.738281 116.902344 69.542969 117.816406 70.136719 C 118.726562 70.734375 119.753906 71.117188 120.902344 71.28125 C 122.050781 71.445312 123.28125 71.40625 124.597656 71.15625 C 125.914062 70.90625 127.257812 70.441406 128.628906 69.761719 C 130.023438 69.066406 131.195312 68.273438 132.148438 67.382812 C 133.097656 66.488281 133.816406 65.53125 134.300781 64.511719 C 134.78125 63.492188 135.019531 62.429688 135.011719 61.324219 C 135 60.21875 134.726562 59.125 134.191406 58.042969 C 133.449219 56.550781 132.46875 55.515625 131.25 54.9375 C 130.03125 54.355469 128.707031 54.027344 127.269531 53.945312 C 125.835938 53.863281 124.355469 53.929688 122.828125 54.148438 C 121.300781 54.367188 119.859375 54.515625 118.503906 54.589844 C 117.144531 54.664062 115.9375 54.574219 114.882812 54.316406 C 113.824219 54.0625 113.039062 53.417969 112.527344 52.382812 C 112.238281 51.804688 112.097656 51.203125 112.097656 50.570312 C 112.097656 49.941406 112.253906 49.316406 112.5625 48.699219 C 112.871094 48.082031 113.328125 47.476562 113.9375 46.890625 C 114.542969 46.304688 115.316406 45.777344 116.253906 45.3125 C 117.820312 44.535156 119.3125 44.203125 120.734375 44.324219 C 122.160156 44.441406 123.320312 45.160156 124.21875 46.484375 L 126.671875 45.265625 C 126.085938 44.449219 125.363281 43.808594 124.503906 43.351562 C 123.648438 42.890625 122.710938 42.605469 121.695312 42.496094 C 120.679688 42.386719 119.625 42.445312 118.523438 42.675781 C 117.425781 42.910156 116.34375 43.289062 115.285156 43.8125 C 114.179688 44.363281 113.199219 45.03125 112.34375 45.816406 C 111.488281 46.601562 110.820312 47.457031 110.335938 48.386719 C 109.855469 49.316406 109.597656 50.3125 109.574219 51.375 C 109.546875 52.441406 109.800781 53.511719 110.339844 54.59375 C 111.042969 56.015625 111.972656 56.976562 113.125 57.484375 C 114.277344 57.992188 115.542969 58.261719 116.925781 58.296875 C 118.308594 58.332031 119.738281 58.234375 121.214844 58.011719 C 122.691406 57.785156 124.109375 57.660156 125.460938 57.632812 C 126.8125 57.605469 128.035156 57.789062 129.125 58.175781 C 130.21875 58.5625 131.074219 59.378906 131.695312 60.632812 C 132.472656 62.195312 132.46875 63.621094 131.683594 64.910156 C 130.902344 66.199219 129.558594 67.316406 127.660156 68.261719 C 126.144531 69.015625 124.828125 69.421875 123.71875 69.476562 C 122.605469 69.535156 121.671875 69.40625 120.917969 69.09375 C 120.160156 68.777344 119.550781 68.367188 119.089844 67.863281 C 118.628906 67.355469 118.285156 66.90625 118.058594 66.507812 L 115.605469 67.726562 M 139.636719 48.472656 C 139.976562 49.9375 140.617188 51.4375 141.5625 52.96875 C 142.511719 54.503906 143.746094 55.835938 145.277344 56.972656 C 146.808594 58.109375 148.609375 58.925781 150.683594 59.425781 C 152.753906 59.929688 155.085938 59.878906 157.679688 59.28125 C 159.433594 58.878906 160.972656 58.296875 162.300781 57.535156 C 163.625 56.773438 164.773438 55.894531 165.746094 54.898438 C 166.714844 53.90625 167.507812 52.832031 168.125 51.683594 C 168.742188 50.535156 169.199219 49.371094 169.488281 48.1875 C 169.78125 47 169.941406 45.839844 169.96875 44.703125 C 169.996094 43.570312 169.898438 42.515625 169.675781 41.546875 C 169.335938 40.082031 168.675781 38.585938 167.691406 37.0625 C 166.707031 35.539062 165.421875 34.214844 163.839844 33.09375 C 162.257812 31.96875 160.394531 31.164062 158.257812 30.679688 C 156.121094 30.191406 153.742188 30.25 151.125 30.855469 C 148.53125 31.453125 146.414062 32.421875 144.765625 33.769531 C 143.117188 35.113281 141.855469 36.625 140.972656 38.300781 C 140.09375 39.980469 139.5625 41.722656 139.386719 43.527344 C 139.210938 45.332031 139.292969 46.980469 139.636719 48.472656 M 143.484375 47.585938 C 143.0625 45.753906 142.957031 44.007812 143.167969 42.34375 C 143.375 40.683594 143.84375 39.191406 144.574219 37.863281 C 145.300781 36.539062 146.261719 35.414062 147.457031 34.492188 C 148.648438 33.570312 150.03125 32.925781 151.601562 32.566406 C 153.144531 32.207031 154.675781 32.179688 156.191406 32.476562 C 157.707031 32.777344 159.109375 33.355469 160.398438 34.21875 C 161.683594 35.078125 162.804688 36.203125 163.761719 37.597656 C 164.714844 38.988281 165.40625 40.601562 165.828125 42.433594 C 166.25 44.265625 166.335938 46.019531 166.085938 47.6875 C 165.839844 49.359375 165.324219 50.863281 164.542969 52.199219 C 163.761719 53.539062 162.757812 54.671875 161.523438 55.605469 C 160.292969 56.535156 158.902344 57.179688 157.359375 57.535156 C 155.789062 57.898438 154.265625 57.925781 152.789062 57.617188 C 151.3125 57.3125 149.953125 56.722656 148.71875 55.847656 C 147.484375 54.976562 146.410156 53.835938 145.492188 52.4375 C 144.578125 51.035156 143.910156 49.417969 143.484375 47.585938 M 180.800781 55.34375 L 180.921875 27.136719 L 184.589844 27.15625 L 184.476562 53.144531 L 199.023438 53.207031 L 199.011719 55.425781 L 180.800781 55.34375 M 210.425781 28.414062 L 206.757812 45.347656 C 206.523438 46.425781 206.371094 47.636719 206.300781 48.980469 C 206.226562 50.324219 206.464844 51.640625 207.011719 52.929688 C 207.558594 54.214844 208.523438 55.398438 209.910156 56.484375 C 211.296875 57.566406 213.328125 58.398438 216.007812 58.980469 C 217.6875 59.34375 219.234375 59.402344 220.648438 59.160156 C 222.0625 58.917969 223.308594 58.429688 224.386719 57.703125 C 225.464844 56.972656 226.359375 56.046875 227.070312 54.921875 C 227.78125 53.800781 228.285156 52.542969 228.589844 51.148438 L 232.476562 33.191406 L 230.746094 32.816406 L 227.136719 49.476562 C 227.011719 50.050781 226.871094 50.632812 226.71875 51.21875 C 226.5625 51.804688 226.355469 52.378906 226.097656 52.941406 C 225.839844 53.503906 225.507812 54.042969 225.109375 54.558594 C 224.707031 55.078125 224.183594 55.570312 223.53125 56.03125 C 222.363281 56.851562 221.152344 57.316406 219.890625 57.429688 C 218.628906 57.539062 217.355469 57.457031 216.066406 57.179688 C 214.964844 56.9375 214.023438 56.558594 213.246094 56.03125 C 212.464844 55.503906 211.769531 54.816406 211.15625 53.96875 C 210.664062 53.3125 210.320312 52.691406 210.117188 52.097656 C 209.917969 51.503906 209.792969 50.933594 209.746094 50.386719 C 209.699219 49.839844 209.722656 49.304688 209.808594 48.773438 C 209.894531 48.242188 209.996094 47.714844 210.109375 47.1875 L 214.007812 29.191406 L 210.425781 28.414062 M 244.507812 68.289062 L 255.394531 44.6875 L 265.199219 49.210938 L 266.128906 47.199219 L 243.183594 36.617188 L 242.257812 38.628906 L 252.0625 43.152344 L 241.179688 66.753906 L 244.507812 68.289062 M 277.035156 54.480469 L 261.019531 77.699219 L 264.039062 79.78125 L 280.054688 56.5625 L 277.035156 54.480469 M 282.3125 75.109375 C 281.226562 76.148438 280.269531 77.46875 279.4375 79.066406 C 278.609375 80.664062 278.097656 82.414062 277.90625 84.308594 C 277.71875 86.203125 277.9375 88.171875 278.570312 90.207031 C 279.203125 92.242188 280.441406 94.21875 282.285156 96.140625 C 283.53125 97.4375 284.820312 98.460938 286.152344 99.210938 C 287.488281 99.957031 288.832031 100.496094 290.183594 100.816406 C 291.535156 101.136719 292.859375 101.269531 294.164062 101.210938 C 295.464844 101.152344 296.699219 100.945312 297.867188 100.589844 C 299.035156 100.230469 300.109375 99.773438 301.101562 99.214844 C 302.089844 98.65625 302.945312 98.03125 303.660156 97.34375 C 304.746094 96.300781 305.691406 94.96875 306.492188 93.339844 C 307.296875 91.710938 307.773438 89.933594 307.925781 87.996094 C 308.082031 86.0625 307.816406 84.050781 307.136719 81.96875 C 306.457031 79.882812 305.1875 77.871094 303.328125 75.933594 C 301.484375 74.015625 299.566406 72.695312 297.566406 71.96875 C 295.566406 71.246094 293.621094 70.933594 291.726562 71.039062 C 289.835938 71.144531 288.070312 71.582031 286.429688 72.355469 C 284.789062 73.128906 283.417969 74.046875 282.3125 75.109375 M 285.046875 77.957031 C 286.402344 76.652344 287.847656 75.667969 289.382812 74.996094 C 290.914062 74.324219 292.4375 73.960938 293.949219 73.90625 C 295.460938 73.851562 296.917969 74.097656 298.324219 74.648438 C 299.726562 75.199219 300.988281 76.058594 302.105469 77.21875 C 303.203125 78.363281 304.011719 79.664062 304.53125 81.117188 C 305.054688 82.570312 305.277344 84.070312 305.195312 85.617188 C 305.117188 87.164062 304.726562 88.707031 304.019531 90.238281 C 303.3125 91.773438 302.28125 93.191406 300.925781 94.496094 C 299.570312 95.796875 298.109375 96.769531 296.550781 97.414062 C 294.988281 98.054688 293.433594 98.382812 291.882812 98.398438 C 290.335938 98.417969 288.84375 98.132812 287.414062 97.554688 C 285.980469 96.972656 284.714844 96.113281 283.617188 94.96875 C 282.5 93.804688 281.695312 92.511719 281.203125 91.085938 C 280.710938 89.660156 280.519531 88.195312 280.636719 86.6875 C 280.753906 85.179688 281.179688 83.671875 281.914062 82.167969 C 282.644531 80.660156 283.691406 79.257812 285.046875 77.957031 M 333.46875 120.34375 L 314.511719 130.605469 L 314.433594 130.464844 L 323.167969 100.304688 L 323.074219 100.125 L 297.84375 113.785156 L 298.726562 115.417969 L 317.683594 105.152344 L 317.761719 105.292969 L 309.023438 135.453125 L 309.121094 135.632812 L 334.351562 121.972656 L 333.46875 120.34375 M 319.042969 140.445312 C 317.941406 140.796875 317.007812 141.363281 316.246094 142.140625 C 315.480469 142.917969 314.90625 143.851562 314.519531 144.945312 C 314.132812 146.035156 313.933594 147.253906 313.917969 148.59375 C 313.90625 149.929688 314.097656 151.339844 314.496094 152.820312 C 314.902344 154.324219 315.453125 155.628906 316.140625 156.734375 C 316.828125 157.84375 317.625 158.734375 318.53125 159.40625 C 319.4375 160.082031 320.433594 160.523438 321.519531 160.730469 C 322.605469 160.9375 323.730469 160.882812 324.898438 160.566406 C 326.507812 160.132812 327.714844 159.375 328.519531 158.292969 C 329.328125 157.214844 329.910156 155.976562 330.273438 154.585938 C 330.632812 153.195312 330.855469 151.730469 330.941406 150.1875 C 331.027344 148.648438 331.164062 147.207031 331.359375 145.859375 C 331.550781 144.515625 331.875 143.347656 332.332031 142.363281 C 332.789062 141.375 333.574219 140.734375 334.691406 140.429688 C 335.3125 140.261719 335.933594 140.242188 336.550781 140.367188 C 337.167969 140.492188 337.75 140.765625 338.296875 141.1875 C 338.84375 141.613281 339.34375 142.179688 339.800781 142.890625 C 340.257812 143.601562 340.621094 144.464844 340.894531 145.472656 C 341.351562 147.160156 341.382812 148.6875 340.988281 150.0625 C 340.59375 151.433594 339.660156 152.429688 338.1875 153.050781 L 338.902344 155.699219 C 339.816406 155.28125 340.585938 154.699219 341.203125 153.949219 C 341.820312 153.195312 342.285156 152.335938 342.589844 151.359375 C 342.898438 150.386719 343.046875 149.339844 343.035156 148.214844 C 343.023438 147.089844 342.863281 145.957031 342.554688 144.816406 C 342.230469 143.625 341.769531 142.53125 341.167969 141.539062 C 340.566406 140.546875 339.855469 139.722656 339.039062 139.066406 C 338.222656 138.414062 337.292969 137.96875 336.257812 137.734375 C 335.21875 137.5 334.117188 137.539062 332.949219 137.855469 C 331.421875 138.269531 330.292969 138.988281 329.570312 140.019531 C 328.847656 141.050781 328.335938 142.238281 328.03125 143.589844 C 327.726562 144.9375 327.539062 146.355469 327.472656 147.851562 C 327.402344 149.34375 327.25 150.757812 327.007812 152.085938 C 326.769531 153.417969 326.355469 154.582031 325.761719 155.574219 C 325.167969 156.570312 324.195312 157.25 322.847656 157.617188 C 321.164062 158.070312 319.765625 157.789062 318.652344 156.765625 C 317.542969 155.746094 316.710938 154.210938 316.15625 152.160156 C 315.714844 150.527344 315.574219 149.160156 315.734375 148.058594 C 315.898438 146.957031 316.207031 146.066406 316.664062 145.386719 C 317.117188 144.707031 317.640625 144.191406 318.226562 143.839844 C 318.8125 143.484375 319.324219 143.234375 319.757812 143.089844 L 319.042969 140.445312 " fill-opacity="1" fill-rule="nonzero"/><path fill="#64c6c4" d="M 54.84375 251.089844 L 51.289062 243.066406 L 46.421875 243.382812 L 45.59375 241.515625 L 65.851562 240.234375 L 66.734375 242.226562 L 52.167969 256.351562 L 51.339844 254.484375 L 54.84375 251.089844 M 56.074219 249.910156 L 64.066406 242.203125 L 52.988281 242.949219 L 56.074219 249.910156 M 63.070312 274.449219 L 62.039062 272.8125 L 70.082031 255.132812 L 56.351562 263.777344 L 55.324219 262.140625 L 71.644531 251.867188 L 72.675781 253.5 L 64.65625 271.167969 L 78.363281 262.539062 L 79.390625 264.171875 L 63.070312 274.449219 M 89.070312 275.960938 L 74.628906 288.746094 L 73.347656 287.300781 L 87.789062 274.515625 L 89.070312 275.960938 M 93.65625 294.039062 C 92.171875 294.027344 90.640625 293.277344 89.066406 291.78125 L 86.242188 289.105469 L 80.585938 295.078125 L 79.183594 293.75 L 92.449219 279.746094 L 96.675781 283.75 C 98.238281 285.230469 99.070312 286.714844 99.167969 288.199219 C 99.265625 289.6875 98.742188 291.039062 97.589844 292.253906 C 96.449219 293.457031 95.140625 294.050781 93.65625 294.039062 M 96.148438 290.886719 C 97.03125 289.953125 97.441406 289 97.375 288.023438 C 97.3125 287.050781 96.703125 286.019531 95.554688 284.933594 L 92.730469 282.257812 L 87.378906 287.90625 L 90.203125 290.582031 C 92.394531 292.65625 94.375 292.757812 96.148438 290.886719 M 108.894531 299.84375 C 110.382812 299.003906 111.960938 298.601562 113.621094 298.640625 C 115.28125 298.679688 116.863281 299.160156 118.367188 300.085938 C 120.199219 301.214844 121.503906 302.617188 122.277344 304.289062 C 123.050781 305.964844 123.246094 307.777344 122.867188 309.726562 L 120.941406 308.539062 C 121.15625 307.136719 120.972656 305.828125 120.398438 304.605469 C 119.820312 303.386719 118.847656 302.359375 117.484375 301.519531 C 116.277344 300.777344 115.019531 300.390625 113.710938 300.363281 C 112.398438 300.332031 111.144531 300.679688 109.945312 301.398438 C 108.746094 302.121094 107.71875 303.175781 106.859375 304.570312 C 106 305.964844 105.523438 307.355469 105.425781 308.742188 C 105.328125 310.128906 105.589844 311.402344 106.203125 312.558594 C 106.820312 313.714844 107.730469 314.664062 108.9375 315.40625 C 110.300781 316.246094 111.65625 316.652344 113 316.628906 C 114.34375 316.601562 115.589844 316.183594 116.734375 315.378906 L 118.660156 316.5625 C 117.101562 317.761719 115.398438 318.390625 113.550781 318.441406 C 111.707031 318.492188 109.875 317.960938 108.054688 316.839844 C 106.550781 315.917969 105.410156 314.722656 104.625 313.257812 C 103.84375 311.792969 103.488281 310.207031 103.566406 308.503906 C 103.640625 306.800781 104.175781 305.144531 105.167969 303.53125 C 106.160156 301.917969 107.402344 300.6875 108.894531 299.84375 M 126.617188 325.289062 C 125.582031 323.96875 124.957031 322.457031 124.742188 320.753906 C 124.53125 319.050781 124.777344 317.320312 125.488281 315.566406 C 126.195312 313.808594 127.21875 312.390625 128.558594 311.3125 C 129.894531 310.238281 131.394531 309.582031 133.054688 309.351562 C 134.714844 309.121094 136.375 309.335938 138.027344 310.007812 C 139.699219 310.679688 141.050781 311.679688 142.085938 313 C 143.121094 314.320312 143.742188 315.828125 143.945312 317.53125 C 144.152344 319.230469 143.902344 320.957031 143.191406 322.714844 C 142.480469 324.472656 141.460938 325.890625 140.132812 326.96875 C 138.804688 328.050781 137.308594 328.707031 135.648438 328.9375 C 133.988281 329.171875 132.320312 328.949219 130.648438 328.273438 C 128.996094 327.605469 127.652344 326.609375 126.617188 325.289062 M 135.234375 327.238281 C 136.539062 327.050781 137.730469 326.507812 138.8125 325.601562 C 139.890625 324.699219 140.734375 323.488281 141.347656 321.972656 C 141.960938 320.453125 142.191406 319 142.039062 317.609375 C 141.886719 316.21875 141.40625 315 140.597656 313.960938 C 139.789062 312.917969 138.71875 312.128906 137.386719 311.59375 C 136.058594 311.054688 134.738281 310.878906 133.433594 311.066406 C 132.128906 311.253906 130.9375 311.792969 129.863281 312.6875 C 128.785156 313.585938 127.941406 314.789062 127.328125 316.308594 C 126.714844 317.828125 126.484375 319.285156 126.632812 320.683594 C 126.78125 322.082031 127.261719 323.304688 128.070312 324.34375 C 128.878906 325.386719 129.949219 326.175781 131.28125 326.714844 C 132.609375 327.25 133.929688 327.425781 135.234375 327.238281 M 160.789062 336.933594 L 158.90625 336.503906 L 152.117188 318.304688 L 148.5 334.121094 L 146.617188 333.691406 L 150.917969 314.890625 L 152.800781 315.320312 L 159.597656 333.492188 L 163.210938 317.703125 L 165.09375 318.132812 L 160.789062 336.933594 M 170.964844 337.785156 C 170.042969 337.261719 169.339844 336.578125 168.859375 335.742188 C 168.382812 334.90625 168.167969 334 168.214844 333.027344 L 170.25 333.207031 C 170.257812 334.148438 170.597656 335.007812 171.269531 335.777344 C 171.9375 336.546875 172.980469 336.996094 174.390625 337.121094 C 175.691406 337.234375 176.75 336.992188 177.570312 336.390625 C 178.390625 335.789062 178.847656 334.976562 178.9375 333.949219 C 179.011719 333.125 178.859375 332.441406 178.480469 331.902344 C 178.105469 331.359375 177.617188 330.9375 177.015625 330.636719 C 176.414062 330.332031 175.578125 329.988281 174.503906 329.597656 C 173.253906 329.132812 172.265625 328.703125 171.542969 328.308594 C 170.820312 327.910156 170.226562 327.339844 169.757812 326.597656 C 169.285156 325.855469 169.105469 324.886719 169.210938 323.695312 C 169.296875 322.707031 169.632812 321.84375 170.214844 321.113281 C 170.796875 320.378906 171.574219 319.835938 172.550781 319.476562 C 173.523438 319.121094 174.613281 318.996094 175.824219 319.101562 C 177.601562 319.261719 178.996094 319.824219 180.007812 320.789062 C 181.023438 321.757812 181.550781 322.9375 181.59375 324.324219 L 179.503906 324.140625 C 179.445312 323.339844 179.078125 322.601562 178.398438 321.921875 C 177.71875 321.242188 176.757812 320.847656 175.511719 320.738281 C 174.359375 320.636719 173.367188 320.855469 172.542969 321.402344 C 171.71875 321.949219 171.261719 322.75 171.167969 323.816406 C 171.09375 324.621094 171.25 325.289062 171.625 325.820312 C 172.003906 326.355469 172.496094 326.777344 173.105469 327.089844 C 173.714844 327.402344 174.546875 327.753906 175.601562 328.140625 C 176.816406 328.601562 177.796875 329.035156 178.535156 329.441406 C 179.273438 329.847656 179.878906 330.421875 180.347656 331.167969 C 180.816406 331.910156 181 332.867188 180.894531 334.042969 C 180.816406 334.9375 180.503906 335.769531 179.953125 336.535156 C 179.40625 337.296875 178.644531 337.886719 177.664062 338.296875 C 176.6875 338.710938 175.546875 338.859375 174.246094 338.742188 C 172.980469 338.628906 171.886719 338.3125 170.964844 337.785156 M 188.433594 319.933594 L 188.980469 332.0625 C 189.066406 333.976562 189.585938 335.371094 190.535156 336.246094 C 191.488281 337.125 192.753906 337.527344 194.335938 337.457031 C 195.914062 337.382812 197.128906 336.875 197.980469 335.925781 C 198.832031 334.972656 199.210938 333.535156 199.125 331.605469 L 198.574219 319.476562 L 200.503906 319.390625 L 201.050781 331.488281 C 201.164062 333.933594 200.597656 335.800781 199.359375 337.089844 C 198.117188 338.378906 196.460938 339.074219 194.382812 339.167969 C 192.308594 339.261719 190.59375 338.722656 189.242188 337.546875 C 187.890625 336.375 187.160156 334.566406 187.050781 332.125 L 186.503906 320.023438 L 188.433594 319.933594 M 210.242188 335.832031 L 217.078125 334.707031 L 217.332031 336.257812 L 208.59375 337.699219 L 205.460938 318.667969 L 207.367188 318.355469 L 210.242188 335.832031 M 228.457031 313.503906 L 228.878906 315.050781 L 223.714844 316.460938 L 228.371094 333.523438 L 226.507812 334.03125 L 221.851562 316.96875 L 216.660156 318.386719 L 216.238281 316.839844 L 228.457031 313.503906 M 233.773438 311.496094 L 240.382812 329.613281 L 238.566406 330.277344 L 231.960938 312.15625 L 233.773438 311.496094 M 260.058594 320.84375 L 258.320312 321.683594 L 241.644531 311.726562 L 248.707031 326.332031 L 246.964844 327.171875 L 238.574219 309.808594 L 240.3125 308.96875 L 256.976562 318.902344 L 249.925781 304.320312 L 251.664062 303.480469 L 260.058594 320.84375 M 271.796875 296.929688 C 270.617188 296.203125 269.359375 295.867188 268.015625 295.917969 C 266.671875 295.964844 265.371094 296.429688 264.121094 297.300781 C 262.941406 298.121094 262.074219 299.128906 261.519531 300.324219 C 260.960938 301.519531 260.761719 302.808594 260.917969 304.191406 C 261.074219 305.574219 261.613281 306.929688 262.539062 308.257812 C 263.464844 309.585938 264.550781 310.566406 265.800781 311.199219 C 267.046875 311.832031 268.328125 312.09375 269.640625 311.984375 C 270.957031 311.875 272.203125 311.410156 273.378906 310.589844 C 274.480469 309.824219 275.308594 308.894531 275.859375 307.804688 C 276.410156 306.710938 276.648438 305.539062 276.566406 304.28125 C 276.488281 303.027344 276.078125 301.78125 275.332031 300.554688 L 268.675781 305.191406 L 267.777344 303.902344 L 276.109375 298.09375 L 276.914062 299.25 C 277.804688 300.691406 278.304688 302.210938 278.40625 303.808594 C 278.511719 305.40625 278.21875 306.925781 277.53125 308.371094 C 276.84375 309.8125 275.792969 311.027344 274.375 312.015625 C 272.910156 313.035156 271.34375 313.617188 269.671875 313.761719 C 268 313.90625 266.394531 313.601562 264.847656 312.851562 C 263.304688 312.101562 261.992188 310.945312 260.910156 309.394531 C 259.824219 307.839844 259.199219 306.207031 259.027344 304.496094 C 258.859375 302.789062 259.128906 301.175781 259.84375 299.660156 C 260.558594 298.140625 261.644531 296.871094 263.109375 295.851562 C 264.800781 294.675781 266.574219 294.066406 268.429688 294.027344 C 270.289062 293.988281 272.027344 294.527344 273.652344 295.636719 L 271.796875 296.929688 M 287.296875 274.625 L 288.453125 275.730469 L 282.585938 281.878906 L 287.796875 286.851562 L 292.75 281.660156 L 293.90625 282.765625 L 288.957031 287.957031 L 295.386719 294.089844 L 294.050781 295.484375 L 280.097656 282.171875 L 287.296875 274.625 M 290.910156 270.101562 L 305.890625 282.25 L 304.675781 283.75 L 289.695312 271.601562 L 290.910156 270.101562 M 315.839844 268.382812 L 306.488281 267.855469 L 304.503906 270.808594 L 311.195312 275.300781 L 310.117188 276.902344 L 294.105469 266.152344 L 297.332031 261.34375 C 298.535156 259.554688 299.871094 258.488281 301.347656 258.136719 C 302.820312 257.789062 304.253906 258.078125 305.644531 259.011719 C 306.804688 259.792969 307.570312 260.789062 307.941406 262 C 308.3125 263.214844 308.183594 264.550781 307.558594 266.011719 L 317.128906 266.457031 L 315.839844 268.382812 M 303.199219 269.933594 L 305.367188 266.703125 C 306.207031 265.449219 306.535156 264.300781 306.351562 263.257812 C 306.164062 262.214844 305.5625 261.347656 304.539062 260.660156 C 303.484375 259.953125 302.464844 259.714844 301.480469 259.941406 C 300.5 260.167969 299.566406 260.9375 298.683594 262.25 L 296.53125 265.457031 L 303.199219 269.933594 M 311.632812 235.0625 L 328.882812 243.121094 L 328.066406 244.871094 L 314.292969 238.4375 L 325.195312 251.019531 L 324.597656 252.296875 L 308 252.035156 L 321.726562 258.445312 L 320.90625 260.195312 L 303.65625 252.136719 L 304.523438 250.289062 L 322.589844 250.597656 L 310.757812 236.9375 L 311.632812 235.0625 " fill-opacity="1" fill-rule="nonzero"/><path fill="#64c6c4" d="M 177.179688 253.980469 L 177.179688 126.59375 L 167.585938 123.761719 L 167.585938 254.414062 Z M 177.179688 253.980469 " fill-opacity="1" fill-rule="evenodd"/><path fill="#a4cb6a" d="M 164.933594 254.542969 L 164.933594 132.191406 L 157.320312 130.265625 L 157.320312 254.886719 Z M 164.933594 254.542969 " fill-opacity="1" fill-rule="evenodd"/><g clip-path="url(#022e53c9b1)"><path fill="#ffffff" d="M 219.839844 251.144531 L 219.839844 254.996094 L 225.671875 255.25 L 270.457031 257.304688 L 225.671875 251.851562 L 225.671875 133.316406 L 219.839844 131.300781 L 206.066406 126.523438 L 189.714844 120.835938 L 180.628906 117.691406 L 180.628906 253.816406 L 189.714844 253.398438 L 189.714844 131.355469 L 206.066406 136.117188 L 219.820312 140.113281 L 219.820312 251.144531 Z M 219.839844 251.144531 " fill-opacity="1" fill-rule="evenodd"/></g><g clip-path="url(#01835361c8)"><path fill="#dceac6" d="M 155.195312 251.144531 L 155.195312 254.996094 L 104.574219 257.304688 L 149.035156 251.890625 L 149.035156 135.515625 L 155.195312 136.878906 Z M 155.195312 251.144531 " fill-opacity="1" fill-rule="evenodd"/></g><path fill="#ffffff" d="M 67.71875 187.496094 C 67.71875 185.539062 67.769531 183.578125 67.867188 181.621094 C 67.960938 179.664062 68.105469 177.710938 68.300781 175.757812 C 68.492188 173.808594 68.734375 171.863281 69.019531 169.925781 C 69.308594 167.988281 69.644531 166.054688 70.027344 164.132812 C 70.410156 162.210938 70.839844 160.300781 71.316406 158.398438 C 71.792969 156.5 72.316406 154.609375 72.886719 152.734375 C 73.457031 150.859375 74.070312 149 74.734375 147.152344 C 75.394531 145.308594 76.097656 143.480469 76.847656 141.667969 C 77.601562 139.859375 78.394531 138.066406 79.234375 136.296875 C 80.070312 134.523438 80.953125 132.773438 81.878906 131.046875 C 82.800781 129.316406 83.769531 127.613281 84.777344 125.933594 C 85.785156 124.25 86.832031 122.597656 87.921875 120.96875 C 89.011719 119.335938 90.140625 117.734375 91.308594 116.160156 C 92.476562 114.585938 93.679688 113.042969 94.925781 111.527344 C 96.167969 110.011719 97.449219 108.53125 98.765625 107.078125 C 100.082031 105.625 101.433594 104.207031 102.820312 102.820312 C 104.207031 101.4375 105.625 100.085938 107.078125 98.769531 C 108.53125 97.453125 110.011719 96.171875 111.527344 94.929688 C 113.042969 93.6875 114.589844 92.480469 116.164062 91.3125 C 117.738281 90.148438 119.339844 89.019531 120.96875 87.929688 C 122.597656 86.839844 124.253906 85.792969 125.9375 84.785156 C 127.617188 83.777344 129.324219 82.8125 131.050781 81.890625 C 132.78125 80.964844 134.53125 80.085938 136.300781 79.246094 C 138.074219 78.410156 139.867188 77.617188 141.675781 76.867188 C 143.488281 76.117188 145.316406 75.410156 147.160156 74.75 C 149.007812 74.089844 150.867188 73.476562 152.742188 72.90625 C 154.617188 72.339844 156.507812 71.816406 158.40625 71.339844 C 160.308594 70.863281 162.222656 70.433594 164.144531 70.050781 C 166.066406 69.667969 167.996094 69.335938 169.933594 69.046875 C 171.875 68.757812 173.816406 68.519531 175.769531 68.328125 C 177.71875 68.136719 179.671875 67.992188 181.632812 67.894531 C 183.589844 67.800781 185.546875 67.75 187.507812 67.75 C 189.46875 67.75 191.425781 67.800781 193.382812 67.894531 C 195.339844 67.992188 197.296875 68.136719 199.246094 68.328125 C 201.195312 68.519531 203.140625 68.757812 205.082031 69.046875 C 207.019531 69.335938 208.949219 69.667969 210.871094 70.050781 C 212.792969 70.433594 214.707031 70.863281 216.609375 71.339844 C 218.507812 71.816406 220.398438 72.339844 222.273438 72.90625 C 224.148438 73.476562 226.007812 74.089844 227.855469 74.75 C 229.699219 75.410156 231.527344 76.117188 233.339844 76.867188 C 235.148438 77.617188 236.941406 78.410156 238.714844 79.246094 C 240.484375 80.085938 242.234375 80.964844 243.964844 81.890625 C 245.691406 82.8125 247.398438 83.777344 249.078125 84.785156 C 250.761719 85.792969 252.414062 86.839844 254.046875 87.929688 C 255.675781 89.019531 257.277344 90.148438 258.851562 91.3125 C 260.425781 92.480469 261.972656 93.6875 263.488281 94.929688 C 265 96.171875 266.484375 97.453125 267.9375 98.769531 C 269.390625 100.085938 270.808594 101.4375 272.195312 102.820312 C 273.582031 104.207031 274.933594 105.625 276.25 107.078125 C 277.566406 108.53125 278.847656 110.011719 280.089844 111.527344 C 281.335938 113.042969 282.539062 114.585938 283.707031 116.160156 C 284.875 117.734375 286.003906 119.335938 287.09375 120.96875 C 288.183594 122.597656 289.230469 124.25 290.238281 125.933594 C 291.246094 127.613281 292.214844 129.316406 293.136719 131.046875 C 294.0625 132.773438 294.945312 134.523438 295.78125 136.296875 C 296.621094 138.066406 297.414062 139.859375 298.164062 141.667969 C 298.917969 143.480469 299.621094 145.308594 300.28125 147.152344 C 300.945312 149 301.558594 150.859375 302.128906 152.734375 C 302.699219 154.609375 303.222656 156.5 303.699219 158.398438 C 304.175781 160.300781 304.605469 162.210938 304.988281 164.132812 C 305.371094 166.054688 305.707031 167.988281 305.992188 169.925781 C 306.28125 171.863281 306.523438 173.808594 306.714844 175.757812 C 306.90625 177.710938 307.054688 179.664062 307.148438 181.621094 C 307.246094 183.578125 307.296875 185.539062 307.296875 187.496094 C 307.296875 189.457031 307.246094 191.417969 307.148438 193.375 C 307.054688 195.332031 306.90625 197.285156 306.714844 199.238281 C 306.523438 201.1875 306.28125 203.132812 305.992188 205.070312 C 305.707031 207.007812 305.371094 208.941406 304.988281 210.863281 C 304.605469 212.785156 304.175781 214.695312 303.699219 216.597656 C 303.222656 218.496094 302.699219 220.386719 302.128906 222.261719 C 301.558594 224.136719 300.945312 225.996094 300.28125 227.84375 C 299.621094 229.6875 298.917969 231.515625 298.164062 233.328125 C 297.414062 235.136719 296.621094 236.929688 295.78125 238.699219 C 294.945312 240.472656 294.0625 242.222656 293.136719 243.949219 C 292.214844 245.679688 291.246094 247.382812 290.238281 249.0625 C 289.230469 250.746094 288.183594 252.398438 287.09375 254.027344 C 286.003906 255.660156 284.875 257.261719 283.707031 258.835938 C 282.539062 260.410156 281.335938 261.953125 280.089844 263.46875 C 278.847656 264.984375 277.566406 266.464844 276.25 267.917969 C 274.933594 269.371094 273.582031 270.789062 272.195312 272.175781 C 270.808594 273.558594 269.390625 274.910156 267.9375 276.226562 C 266.484375 277.542969 265 278.824219 263.488281 280.066406 C 261.972656 281.308594 260.425781 282.515625 258.851562 283.679688 C 257.277344 284.847656 255.675781 285.976562 254.046875 287.066406 C 252.414062 288.15625 250.761719 289.203125 249.078125 290.210938 C 247.398438 291.21875 245.691406 292.183594 243.964844 293.105469 C 242.234375 294.03125 240.484375 294.910156 238.714844 295.75 C 236.941406 296.585938 235.148438 297.378906 233.339844 298.128906 C 231.527344 298.878906 229.699219 299.585938 227.855469 300.246094 C 226.007812 300.90625 224.148438 301.519531 222.273438 302.089844 C 220.398438 302.65625 218.507812 303.179688 216.609375 303.65625 C 214.707031 304.132812 212.792969 304.5625 210.871094 304.945312 C 208.949219 305.328125 207.019531 305.660156 205.082031 305.949219 C 203.140625 306.238281 201.195312 306.476562 199.246094 306.667969 C 197.296875 306.859375 195.339844 307.003906 193.382812 307.101562 C 191.425781 307.195312 189.46875 307.246094 187.507812 307.246094 C 185.546875 307.246094 183.589844 307.195312 181.632812 307.101562 C 179.671875 307.003906 177.71875 306.859375 175.769531 306.667969 C 173.816406 306.476562 171.875 306.238281 169.933594 305.949219 C 167.996094 305.660156 166.066406 305.328125 164.144531 304.945312 C 162.222656 304.5625 160.308594 304.132812 158.40625 303.65625 C 156.507812 303.179688 154.617188 302.65625 152.742188 302.089844 C 150.867188 301.519531 149.007812 300.90625 147.160156 300.246094 C 145.316406 299.585938 143.488281 298.878906 141.675781 298.128906 C 139.867188 297.378906 138.074219 296.585938 136.300781 295.75 C 134.53125 294.910156 132.78125 294.03125 131.050781 293.105469 C 129.324219 292.183594 127.617188 291.21875 125.9375 290.210938 C 124.253906 289.203125 122.597656 288.15625 120.96875 287.066406 C 119.339844 285.976562 117.738281 284.847656 116.164062 283.679688 C 114.589844 282.515625 113.042969 281.308594 111.527344 280.066406 C 110.011719 278.824219 108.53125 277.542969 107.078125 276.226562 C 105.625 274.910156 104.207031 273.558594 102.820312 272.175781 C 101.433594 270.789062 100.082031 269.371094 98.765625 267.917969 C 97.449219 266.464844 96.167969 264.984375 94.925781 263.46875 C 93.679688 261.953125 92.476562 260.410156 91.308594 258.835938 C 90.140625 257.261719 89.011719 255.660156 87.921875 254.027344 C 86.832031 252.398438 85.785156 250.746094 84.777344 249.0625 C 83.769531 247.382812 82.800781 245.679688 81.878906 243.949219 C 80.953125 242.222656 80.070312 240.472656 79.234375 238.699219 C 78.394531 236.929688 77.601562 235.136719 76.847656 233.328125 C 76.097656 231.515625 75.394531 229.6875 74.734375 227.84375 C 74.070312 225.996094 73.457031 224.136719 72.886719 222.261719 C 72.316406 220.386719 71.792969 218.496094 71.316406 216.597656 C 70.839844 214.695312 70.410156 212.785156 70.027344 210.863281 C 69.644531 208.941406 69.308594 207.007812 69.019531 205.070312 C 68.734375 203.132812 68.492188 201.1875 68.300781 199.238281 C 68.105469 197.285156 67.960938 195.332031 67.867188 193.375 C 67.769531 191.417969 67.71875 189.457031 67.71875 187.496094 Z M 68.8125 187.496094 C 68.8125 189.441406 68.863281 191.382812 68.957031 193.320312 C 69.050781 195.261719 69.195312 197.199219 69.386719 199.132812 C 69.574219 201.066406 69.8125 202.992188 70.097656 204.914062 C 70.382812 206.835938 70.714844 208.75 71.09375 210.652344 C 71.472656 212.558594 71.898438 214.453125 72.371094 216.339844 C 72.84375 218.222656 73.359375 220.09375 73.925781 221.953125 C 74.488281 223.8125 75.097656 225.65625 75.753906 227.484375 C 76.40625 229.3125 77.105469 231.125 77.847656 232.921875 C 78.59375 234.714844 79.378906 236.488281 80.210938 238.246094 C 81.039062 240.003906 81.914062 241.738281 82.828125 243.449219 C 83.746094 245.164062 84.703125 246.851562 85.699219 248.519531 C 86.699219 250.183594 87.738281 251.824219 88.816406 253.441406 C 89.898438 255.054688 91.015625 256.644531 92.171875 258.203125 C 93.328125 259.765625 94.523438 261.292969 95.757812 262.796875 C 96.988281 264.296875 98.257812 265.769531 99.5625 267.207031 C 100.867188 268.648438 102.207031 270.054688 103.578125 271.425781 C 104.953125 272.800781 106.359375 274.140625 107.796875 275.445312 C 109.238281 276.75 110.707031 278.015625 112.210938 279.25 C 113.710938 280.480469 115.242188 281.675781 116.800781 282.832031 C 118.363281 283.992188 119.949219 285.109375 121.566406 286.1875 C 123.179688 287.265625 124.820312 288.304688 126.488281 289.304688 C 128.152344 290.304688 129.84375 291.261719 131.554688 292.175781 C 133.269531 293.09375 135.003906 293.964844 136.757812 294.796875 C 138.515625 295.625 140.289062 296.414062 142.085938 297.15625 C 143.878906 297.898438 145.691406 298.597656 147.519531 299.253906 C 149.351562 299.90625 151.195312 300.515625 153.050781 301.082031 C 154.910156 301.644531 156.78125 302.164062 158.667969 302.632812 C 160.550781 303.105469 162.445312 303.53125 164.351562 303.910156 C 166.257812 304.289062 168.171875 304.621094 170.089844 304.90625 C 172.011719 305.191406 173.941406 305.429688 175.875 305.621094 C 177.808594 305.808594 179.742188 305.953125 181.683594 306.046875 C 183.625 306.144531 185.566406 306.191406 187.507812 306.191406 C 189.449219 306.191406 191.390625 306.144531 193.332031 306.046875 C 195.273438 305.953125 197.207031 305.808594 199.140625 305.621094 C 201.074219 305.429688 203.003906 305.191406 204.921875 304.90625 C 206.84375 304.621094 208.757812 304.289062 210.664062 303.910156 C 212.570312 303.53125 214.464844 303.105469 216.347656 302.632812 C 218.230469 302.164062 220.105469 301.644531 221.960938 301.082031 C 223.820312 300.515625 225.664062 299.90625 227.496094 299.253906 C 229.324219 298.597656 231.136719 297.898438 232.929688 297.15625 C 234.722656 296.414062 236.5 295.625 238.253906 294.796875 C 240.011719 293.964844 241.746094 293.09375 243.460938 292.175781 C 245.171875 291.261719 246.863281 290.304688 248.527344 289.304688 C 250.195312 288.304688 251.835938 287.265625 253.449219 286.1875 C 255.066406 285.109375 256.652344 283.992188 258.214844 282.832031 C 259.773438 281.675781 261.304688 280.480469 262.804688 279.25 C 264.308594 278.015625 265.777344 276.75 267.21875 275.445312 C 268.65625 274.140625 270.0625 272.800781 271.4375 271.425781 C 272.808594 270.054688 274.148438 268.648438 275.453125 267.207031 C 276.757812 265.769531 278.027344 264.296875 279.257812 262.796875 C 280.492188 261.292969 281.6875 259.765625 282.84375 258.203125 C 284 256.644531 285.117188 255.054688 286.199219 253.441406 C 287.277344 251.824219 288.316406 250.183594 289.3125 248.519531 C 290.3125 246.851562 291.269531 245.164062 292.1875 243.449219 C 293.101562 241.738281 293.976562 240.003906 294.804688 238.246094 C 295.636719 236.488281 296.421875 234.714844 297.164062 232.921875 C 297.910156 231.125 298.609375 229.3125 299.261719 227.484375 C 299.917969 225.65625 300.527344 223.8125 301.089844 221.953125 C 301.652344 220.09375 302.171875 218.222656 302.644531 216.339844 C 303.117188 214.453125 303.542969 212.558594 303.921875 210.652344 C 304.300781 208.75 304.632812 206.835938 304.917969 204.914062 C 305.203125 202.992188 305.4375 201.066406 305.628906 199.132812 C 305.820312 197.199219 305.960938 195.261719 306.058594 193.320312 C 306.152344 191.382812 306.199219 189.441406 306.199219 187.496094 C 306.199219 185.554688 306.152344 183.613281 306.058594 181.675781 C 305.960938 179.734375 305.820312 177.796875 305.628906 175.863281 C 305.4375 173.929688 305.203125 172.003906 304.917969 170.082031 C 304.632812 168.160156 304.300781 166.246094 303.921875 164.34375 C 303.542969 162.4375 303.117188 160.542969 302.644531 158.65625 C 302.171875 156.773438 301.652344 154.902344 301.089844 153.042969 C 300.527344 151.183594 299.917969 149.339844 299.261719 147.511719 C 298.609375 145.683594 297.910156 143.871094 297.164062 142.074219 C 296.421875 140.28125 295.636719 138.507812 294.804688 136.75 C 293.976562 134.992188 293.101562 133.257812 292.1875 131.546875 C 291.269531 129.832031 290.3125 128.144531 289.3125 126.476562 C 288.316406 124.8125 287.277344 123.171875 286.199219 121.554688 C 285.117188 119.941406 284 118.351562 282.84375 116.792969 C 281.6875 115.230469 280.492188 113.703125 279.257812 112.199219 C 278.027344 110.699219 276.757812 109.226562 275.453125 107.789062 C 274.148438 106.347656 272.808594 104.941406 271.4375 103.570312 C 270.0625 102.195312 268.65625 100.855469 267.21875 99.550781 C 265.777344 98.246094 264.308594 96.980469 262.804688 95.746094 C 261.304688 94.515625 259.773438 93.320312 258.214844 92.164062 C 256.652344 91.003906 255.066406 89.886719 253.449219 88.808594 C 251.835938 87.730469 250.195312 86.691406 248.527344 85.691406 C 246.863281 84.691406 245.171875 83.734375 243.460938 82.820312 C 241.746094 81.902344 240.011719 81.03125 238.253906 80.199219 C 236.5 79.371094 234.722656 78.582031 232.929688 77.839844 C 231.136719 77.097656 229.324219 76.398438 227.496094 75.742188 C 225.664062 75.089844 223.820312 74.480469 221.960938 73.914062 C 220.105469 73.351562 218.230469 72.832031 216.347656 72.363281 C 214.464844 71.890625 212.570312 71.464844 210.664062 71.085938 C 208.757812 70.707031 206.84375 70.375 204.921875 70.089844 C 203.003906 69.804688 201.074219 69.566406 199.140625 69.375 C 197.207031 69.1875 195.273438 69.042969 193.332031 68.949219 C 191.390625 68.851562 189.449219 68.804688 187.507812 68.804688 C 185.566406 68.804688 183.625 68.851562 181.683594 68.949219 C 179.742188 69.042969 177.808594 69.1875 175.875 69.375 C 173.941406 69.566406 172.011719 69.804688 170.089844 70.089844 C 168.171875 70.375 166.257812 70.707031 164.351562 71.085938 C 162.445312 71.464844 160.550781 71.890625 158.667969 72.363281 C 156.78125 72.832031 154.910156 73.351562 153.050781 73.914062 C 151.195312 74.480469 149.351562 75.089844 147.519531 75.742188 C 145.691406 76.398438 143.878906 77.097656 142.085938 77.839844 C 140.289062 78.582031 138.515625 79.371094 136.757812 80.199219 C 135.003906 81.03125 133.269531 81.902344 131.554688 82.820312 C 129.84375 83.734375 128.152344 84.691406 126.488281 85.691406 C 124.820312 86.691406 123.179688 87.730469 121.566406 88.808594 C 119.949219 89.886719 118.363281 91.003906 116.800781 92.164062 C 115.242188 93.320312 113.710938 94.515625 112.210938 95.746094 C 110.707031 96.980469 109.238281 98.246094 107.796875 99.550781 C 106.359375 100.855469 104.953125 102.195312 103.578125 103.570312 C 102.207031 104.941406 100.867188 106.347656 99.5625 107.789062 C 98.257812 109.226562 96.988281 110.699219 95.757812 112.199219 C 94.523438 113.703125 93.328125 115.230469 92.171875 116.792969 C 91.015625 118.351562 89.898438 119.941406 88.816406 121.554688 C 87.738281 123.171875 86.699219 124.8125 85.699219 126.476562 C 84.703125 128.144531 83.746094 129.832031 82.828125 131.546875 C 81.914062 133.257812 81.039062 134.992188 80.210938 136.75 C 79.378906 138.507812 78.59375 140.28125 77.847656 142.074219 C 77.105469 143.871094 76.40625 145.683594 75.753906 147.511719 C 75.097656 149.339844 74.488281 151.183594 73.925781 153.042969 C 73.359375 154.902344 72.84375 156.773438 72.371094 158.65625 C 71.898438 160.542969 71.472656 162.4375 71.09375 164.34375 C 70.714844 166.246094 70.382812 168.160156 70.097656 170.082031 C 69.8125 172.003906 69.574219 173.929688 69.386719 175.863281 C 69.195312 177.796875 69.050781 179.734375 68.957031 181.675781 C 68.863281 183.613281 68.8125 185.554688 68.8125 187.496094 Z M 68.8125 187.496094 " fill-opacity="1" fill-rule="nonzero"/><path fill="#ffffff" d="M 9.21875 187.496094 C 9.21875 184.582031 9.292969 181.664062 9.433594 178.75 C 9.578125 175.835938 9.792969 172.925781 10.078125 170.023438 C 10.363281 167.117188 10.722656 164.222656 11.148438 161.335938 C 11.578125 158.453125 12.078125 155.578125 12.644531 152.714844 C 13.214844 149.855469 13.855469 147.007812 14.5625 144.175781 C 15.273438 141.347656 16.050781 138.535156 16.898438 135.742188 C 17.742188 132.953125 18.660156 130.183594 19.640625 127.433594 C 20.625 124.6875 21.675781 121.964844 22.792969 119.269531 C 23.90625 116.574219 25.089844 113.90625 26.335938 111.269531 C 27.585938 108.632812 28.894531 106.027344 30.273438 103.453125 C 31.648438 100.878906 33.085938 98.34375 34.585938 95.839844 C 36.085938 93.335938 37.644531 90.871094 39.265625 88.445312 C 40.886719 86.019531 42.566406 83.636719 44.304688 81.292969 C 46.042969 78.949219 47.839844 76.648438 49.6875 74.394531 C 51.539062 72.136719 53.445312 69.929688 55.40625 67.765625 C 57.363281 65.605469 59.375 63.492188 61.4375 61.429688 C 63.503906 59.367188 65.613281 57.355469 67.777344 55.394531 C 69.9375 53.4375 72.148438 51.53125 74.402344 49.679688 C 76.660156 47.828125 78.957031 46.035156 81.300781 44.296875 C 83.644531 42.558594 86.03125 40.878906 88.457031 39.257812 C 90.882812 37.636719 93.347656 36.074219 95.847656 34.574219 C 98.351562 33.074219 100.890625 31.636719 103.464844 30.261719 C 106.035156 28.886719 108.640625 27.574219 111.28125 26.328125 C 113.917969 25.082031 116.585938 23.898438 119.28125 22.78125 C 121.976562 21.664062 124.695312 20.617188 127.445312 19.632812 C 130.191406 18.648438 132.960938 17.734375 135.753906 16.886719 C 138.546875 16.039062 141.355469 15.261719 144.1875 14.554688 C 147.019531 13.84375 149.863281 13.207031 152.726562 12.636719 C 155.585938 12.066406 158.460938 11.566406 161.347656 11.140625 C 164.234375 10.710938 167.128906 10.355469 170.03125 10.070312 C 172.9375 9.78125 175.84375 9.566406 178.757812 9.425781 C 181.671875 9.28125 184.589844 9.210938 187.507812 9.210938 C 190.425781 9.210938 193.339844 9.28125 196.253906 9.425781 C 199.171875 9.566406 202.078125 9.78125 204.984375 10.070312 C 207.886719 10.355469 210.78125 10.710938 213.667969 11.140625 C 216.554688 11.566406 219.429688 12.066406 222.289062 12.636719 C 225.152344 13.207031 227.996094 13.84375 230.828125 14.554688 C 233.660156 15.261719 236.46875 16.039062 239.261719 16.886719 C 242.054688 17.734375 244.824219 18.648438 247.570312 19.632812 C 250.316406 20.617188 253.039062 21.664062 255.734375 22.78125 C 258.429688 23.898438 261.097656 25.082031 263.734375 26.328125 C 266.375 27.574219 268.980469 28.886719 271.550781 30.261719 C 274.125 31.636719 276.664062 33.074219 279.164062 34.574219 C 281.667969 36.074219 284.132812 37.636719 286.558594 39.257812 C 288.984375 40.878906 291.371094 42.558594 293.714844 44.296875 C 296.058594 46.035156 298.355469 47.828125 300.613281 49.679688 C 302.867188 51.53125 305.078125 53.4375 307.238281 55.394531 C 309.398438 57.355469 311.511719 59.367188 313.574219 61.429688 C 315.640625 63.492188 317.652344 65.605469 319.609375 67.765625 C 321.570312 69.929688 323.476562 72.136719 325.324219 74.394531 C 327.175781 76.648438 328.972656 78.949219 330.710938 81.292969 C 332.449219 83.636719 334.128906 86.019531 335.75 88.445312 C 337.371094 90.871094 338.929688 93.335938 340.429688 95.839844 C 341.929688 98.34375 343.367188 100.878906 344.742188 103.453125 C 346.117188 106.027344 347.429688 108.632812 348.675781 111.269531 C 349.925781 113.90625 351.105469 116.574219 352.222656 119.269531 C 353.339844 121.964844 354.390625 124.6875 355.375 127.433594 C 356.355469 130.183594 357.269531 132.953125 358.117188 135.742188 C 358.964844 138.535156 359.742188 141.347656 360.453125 144.175781 C 361.160156 147.007812 361.800781 149.855469 362.371094 152.714844 C 362.9375 155.578125 363.4375 158.453125 363.867188 161.335938 C 364.292969 164.222656 364.652344 167.117188 364.9375 170.023438 C 365.222656 172.925781 365.4375 175.835938 365.582031 178.75 C 365.722656 181.664062 365.796875 184.582031 365.796875 187.496094 C 365.796875 190.414062 365.722656 193.332031 365.582031 196.246094 C 365.4375 199.160156 365.222656 202.070312 364.9375 204.972656 C 364.652344 207.878906 364.292969 210.773438 363.867188 213.660156 C 363.4375 216.542969 362.9375 219.417969 362.371094 222.28125 C 361.800781 225.140625 361.160156 227.988281 360.453125 230.820312 C 359.742188 233.648438 358.964844 236.460938 358.117188 239.253906 C 357.269531 242.042969 356.355469 244.8125 355.375 247.5625 C 354.390625 250.308594 353.339844 253.03125 352.222656 255.726562 C 351.105469 258.421875 349.925781 261.089844 348.675781 263.726562 C 347.429688 266.363281 346.117188 268.96875 344.742188 271.542969 C 343.367188 274.117188 341.929688 276.652344 340.429688 279.15625 C 338.929688 281.660156 337.371094 284.125 335.75 286.550781 C 334.128906 288.976562 332.449219 291.359375 330.710938 293.703125 C 328.972656 296.046875 327.175781 298.347656 325.324219 300.601562 C 323.476562 302.859375 321.570312 305.066406 319.609375 307.230469 C 317.652344 309.390625 315.640625 311.503906 313.574219 313.566406 C 311.511719 315.628906 309.398438 317.640625 307.238281 319.601562 C 305.078125 321.558594 302.867188 323.464844 300.613281 325.316406 C 298.355469 327.167969 296.058594 328.960938 293.714844 330.699219 C 291.371094 332.4375 288.984375 334.117188 286.558594 335.738281 C 284.132812 337.359375 281.667969 338.921875 279.164062 340.421875 C 276.664062 341.921875 274.125 343.359375 271.550781 344.734375 C 268.980469 346.109375 266.375 347.421875 263.734375 348.667969 C 261.097656 349.914062 258.429688 351.097656 255.734375 352.214844 C 253.039062 353.332031 250.316406 354.378906 247.570312 355.363281 C 244.824219 356.347656 242.054688 357.261719 239.261719 358.109375 C 236.46875 358.957031 233.660156 359.734375 230.828125 360.441406 C 227.996094 361.152344 225.152344 361.789062 222.289062 362.359375 C 219.429688 362.929688 216.554688 363.429688 213.667969 363.855469 C 210.78125 364.285156 207.886719 364.640625 204.984375 364.925781 C 202.078125 365.214844 199.171875 365.429688 196.253906 365.570312 C 193.339844 365.714844 190.425781 365.785156 187.507812 365.785156 C 184.589844 365.785156 181.671875 365.714844 178.757812 365.570312 C 175.84375 365.429688 172.9375 365.214844 170.03125 364.925781 C 167.128906 364.640625 164.234375 364.285156 161.347656 363.855469 C 158.460938 363.429688 155.585938 362.929688 152.726562 362.359375 C 149.863281 361.789062 147.019531 361.152344 144.1875 360.441406 C 141.355469 359.734375 138.546875 358.957031 135.753906 358.109375 C 132.960938 357.261719 130.191406 356.347656 127.445312 355.363281 C 124.695312 354.378906 121.976562 353.332031 119.28125 352.214844 C 116.585938 351.097656 113.917969 349.914062 111.28125 348.667969 C 108.640625 347.421875 106.035156 346.109375 103.464844 344.734375 C 100.890625 343.359375 98.351562 341.921875 95.847656 340.421875 C 93.347656 338.921875 90.882812 337.359375 88.457031 335.738281 C 86.03125 334.117188 83.644531 332.4375 81.300781 330.699219 C 78.957031 328.960938 76.660156 327.167969 74.402344 325.316406 C 72.148438 323.464844 69.9375 321.558594 67.777344 319.601562 C 65.613281 317.640625 63.503906 315.628906 61.4375 313.566406 C 59.375 311.503906 57.363281 309.390625 55.40625 307.230469 C 53.445312 305.066406 51.539062 302.859375 49.6875 300.601562 C 47.839844 298.347656 46.042969 296.046875 44.304688 293.703125 C 42.566406 291.359375 40.886719 288.976562 39.265625 286.550781 C 37.644531 284.125 36.085938 281.660156 34.585938 279.15625 C 33.085938 276.652344 31.648438 274.117188 30.273438 271.542969 C 28.894531 268.96875 27.585938 266.363281 26.335938 263.726562 C 25.089844 261.089844 23.90625 258.421875 22.792969 255.726562 C 21.675781 253.03125 20.625 250.308594 19.640625 247.5625 C 18.660156 244.8125 17.742188 242.042969 16.898438 239.253906 C 16.050781 236.460938 15.273438 233.648438 14.5625 230.820312 C 13.855469 227.988281 13.214844 225.140625 12.644531 222.28125 C 12.078125 219.417969 11.578125 216.542969 11.148438 213.660156 C 10.722656 210.773438 10.363281 207.878906 10.078125 204.972656 C 9.792969 202.070312 9.578125 199.160156 9.433594 196.246094 C 9.292969 193.332031 9.21875 190.414062 9.21875 187.496094 Z M 10.316406 187.496094 C 10.316406 190.398438 10.386719 193.296875 10.527344 196.191406 C 10.671875 199.089844 10.882812 201.980469 11.167969 204.867188 C 11.453125 207.75 11.808594 210.628906 12.234375 213.496094 C 12.660156 216.367188 13.152344 219.222656 13.71875 222.066406 C 14.285156 224.910156 14.921875 227.738281 15.625 230.550781 C 16.328125 233.367188 17.101562 236.160156 17.945312 238.933594 C 18.785156 241.710938 19.695312 244.460938 20.671875 247.191406 C 21.648438 249.921875 22.691406 252.628906 23.804688 255.308594 C 24.914062 257.984375 26.085938 260.636719 27.328125 263.257812 C 28.566406 265.878906 29.871094 268.46875 31.238281 271.027344 C 32.605469 273.582031 34.035156 276.105469 35.523438 278.59375 C 37.015625 281.082031 38.566406 283.53125 40.175781 285.941406 C 41.789062 288.351562 43.457031 290.722656 45.183594 293.050781 C 46.914062 295.378906 48.695312 297.667969 50.535156 299.90625 C 52.375 302.148438 54.269531 304.34375 56.214844 306.492188 C 58.164062 308.640625 60.164062 310.742188 62.214844 312.792969 C 64.265625 314.84375 66.363281 316.839844 68.511719 318.789062 C 70.660156 320.738281 72.855469 322.628906 75.097656 324.46875 C 77.339844 326.308594 79.625 328.09375 81.953125 329.820312 C 84.285156 331.546875 86.652344 333.21875 89.066406 334.828125 C 91.476562 336.4375 93.925781 337.992188 96.414062 339.480469 C 98.898438 340.972656 101.421875 342.402344 103.980469 343.769531 C 106.535156 345.136719 109.125 346.4375 111.746094 347.679688 C 114.371094 348.917969 117.019531 350.09375 119.699219 351.203125 C 122.378906 352.3125 125.082031 353.355469 127.8125 354.332031 C 130.542969 355.308594 133.296875 356.21875 136.070312 357.0625 C 138.847656 357.902344 141.640625 358.675781 144.453125 359.378906 C 147.265625 360.085938 150.09375 360.71875 152.9375 361.285156 C 155.78125 361.851562 158.640625 362.347656 161.507812 362.773438 C 164.375 363.199219 167.253906 363.554688 170.140625 363.835938 C 173.027344 364.121094 175.917969 364.335938 178.8125 364.476562 C 181.710938 364.621094 184.609375 364.691406 187.507812 364.691406 C 190.40625 364.691406 193.304688 364.621094 196.203125 364.476562 C 199.097656 364.335938 201.988281 364.121094 204.875 363.835938 C 207.761719 363.554688 210.636719 363.199219 213.507812 362.773438 C 216.375 362.347656 219.230469 361.851562 222.074219 361.285156 C 224.921875 360.71875 227.75 360.085938 230.5625 359.378906 C 233.375 358.675781 236.167969 357.902344 238.945312 357.0625 C 241.71875 356.21875 244.472656 355.308594 247.203125 354.332031 C 249.933594 353.355469 252.636719 352.3125 255.316406 351.203125 C 257.996094 350.09375 260.644531 348.917969 263.265625 347.679688 C 265.890625 346.4375 268.476562 345.136719 271.035156 343.769531 C 273.59375 342.402344 276.117188 340.972656 278.601562 339.480469 C 281.089844 337.992188 283.539062 336.4375 285.949219 334.828125 C 288.363281 333.21875 290.730469 331.546875 293.0625 329.820312 C 295.390625 328.09375 297.675781 326.308594 299.917969 324.46875 C 302.160156 322.628906 304.355469 320.738281 306.503906 318.789062 C 308.652344 316.839844 310.75 314.84375 312.800781 312.792969 C 314.851562 310.742188 316.851562 308.640625 318.796875 306.492188 C 320.746094 304.34375 322.640625 302.148438 324.480469 299.90625 C 326.320312 297.667969 328.101562 295.378906 329.832031 293.050781 C 331.558594 290.722656 333.226562 288.351562 334.839844 285.941406 C 336.449219 283.53125 338 281.082031 339.492188 278.59375 C 340.980469 276.105469 342.410156 273.582031 343.777344 271.027344 C 345.144531 268.46875 346.449219 265.878906 347.6875 263.257812 C 348.925781 260.636719 350.101562 257.984375 351.210938 255.308594 C 352.320312 252.628906 353.367188 249.921875 354.34375 247.191406 C 355.320312 244.460938 356.230469 241.710938 357.070312 238.933594 C 357.914062 236.160156 358.683594 233.367188 359.390625 230.550781 C 360.09375 227.738281 360.730469 224.910156 361.296875 222.066406 C 361.859375 219.222656 362.355469 216.367188 362.78125 213.496094 C 363.207031 210.628906 363.5625 207.75 363.847656 204.867188 C 364.132812 201.980469 364.34375 199.089844 364.488281 196.191406 C 364.628906 193.296875 364.699219 190.398438 364.699219 187.496094 C 364.699219 184.597656 364.628906 181.699219 364.488281 178.804688 C 364.34375 175.90625 364.132812 173.015625 363.847656 170.128906 C 363.5625 167.246094 363.207031 164.367188 362.78125 161.5 C 362.355469 158.628906 361.859375 155.773438 361.296875 152.929688 C 360.730469 150.085938 360.09375 147.257812 359.390625 144.445312 C 358.683594 141.628906 357.914062 138.835938 357.070312 136.0625 C 356.230469 133.285156 355.320312 130.535156 354.34375 127.804688 C 353.367188 125.074219 352.320312 122.367188 351.210938 119.6875 C 350.101562 117.011719 348.925781 114.359375 347.6875 111.738281 C 346.449219 109.117188 345.144531 106.527344 343.777344 103.96875 C 342.410156 101.414062 340.980469 98.890625 339.492188 96.402344 C 338 93.914062 336.449219 91.464844 334.839844 89.054688 C 333.226562 86.644531 331.558594 84.273438 329.832031 81.945312 C 328.101562 79.613281 326.320312 77.328125 324.480469 75.089844 C 322.640625 72.847656 320.746094 70.652344 318.796875 68.503906 C 316.851562 66.355469 314.851562 64.253906 312.800781 62.203125 C 310.75 60.152344 308.652344 58.15625 306.503906 56.207031 C 304.355469 54.257812 302.160156 52.367188 299.917969 50.527344 C 297.675781 48.6875 295.390625 46.902344 293.0625 45.175781 C 290.730469 43.449219 288.363281 41.777344 285.949219 40.167969 C 283.539062 38.554688 281.089844 37.003906 278.601562 35.515625 C 276.117188 34.023438 273.59375 32.59375 271.035156 31.226562 C 268.476562 29.859375 265.890625 28.558594 263.265625 27.316406 C 260.644531 26.078125 257.996094 24.902344 255.316406 23.792969 C 252.636719 22.683594 249.933594 21.640625 247.203125 20.664062 C 244.472656 19.6875 241.71875 18.777344 238.945312 17.933594 C 236.167969 17.09375 233.375 16.320312 230.5625 15.617188 C 227.75 14.910156 224.921875 14.277344 222.074219 13.710938 C 219.230469 13.144531 216.375 12.648438 213.507812 12.222656 C 210.636719 11.796875 207.761719 11.441406 204.875 11.160156 C 201.988281 10.875 199.097656 10.660156 196.203125 10.519531 C 193.304688 10.375 190.40625 10.304688 187.507812 10.304688 C 184.609375 10.304688 181.710938 10.375 178.8125 10.519531 C 175.917969 10.660156 173.027344 10.875 170.140625 11.160156 C 167.253906 11.441406 164.375 11.796875 161.507812 12.222656 C 158.640625 12.648438 155.78125 13.144531 152.9375 13.710938 C 150.09375 14.277344 147.265625 14.910156 144.453125 15.617188 C 141.640625 16.320312 138.847656 17.09375 136.070312 17.933594 C 133.296875 18.777344 130.542969 19.6875 127.8125 20.664062 C 125.082031 21.640625 122.378906 22.683594 119.699219 23.792969 C 117.019531 24.902344 114.371094 26.078125 111.746094 27.316406 C 109.125 28.558594 106.535156 29.859375 103.980469 31.226562 C 101.421875 32.59375 98.898438 34.023438 96.414062 35.515625 C 93.925781 37.003906 91.476562 38.554688 89.066406 40.167969 C 86.652344 41.777344 84.285156 43.449219 81.953125 45.175781 C 79.625 46.902344 77.339844 48.6875 75.097656 50.527344 C 72.855469 52.367188 70.660156 54.257812 68.511719 56.207031 C 66.363281 58.15625 64.265625 60.152344 62.214844 62.203125 C 60.164062 64.253906 58.164062 66.355469 56.214844 68.503906 C 54.269531 70.652344 52.375 72.847656 50.535156 75.089844 C 48.695312 77.328125 46.914062 79.613281 45.183594 81.945312 C 43.457031 84.273438 41.789062 86.644531 40.175781 89.054688 C 38.566406 91.464844 37.015625 93.914062 35.523438 96.402344 C 34.035156 98.890625 32.605469 101.414062 31.238281 103.96875 C 29.871094 106.527344 28.566406 109.117188 27.328125 111.738281 C 26.085938 114.359375 24.914062 117.011719 23.804688 119.6875 C 22.691406 122.367188 21.648438 125.074219 20.671875 127.804688 C 19.695312 130.535156 18.785156 133.285156 17.945312 136.0625 C 17.101562 138.835938 16.328125 141.628906 15.625 144.445312 C 14.921875 147.257812 14.285156 150.085938 13.71875 152.929688 C 13.152344 155.773438 12.660156 158.628906 12.234375 161.5 C 11.808594 164.367188 11.453125 167.246094 11.167969 170.128906 C 10.882812 173.015625 10.671875 175.90625 10.527344 178.804688 C 10.386719 181.699219 10.316406 184.597656 10.316406 187.496094 Z M 10.316406 187.496094 " fill-opacity="1" fill-rule="nonzero"/><g clip-path="url(#e0983d5f9d)"><g clip-path="url(#a12360bdc2)"><g clip-path="url(#23faba25b3)"><path fill="#ffffff" d="M 49.121094 199.976562 L 49.085938 199.683594 L 43.582031 199.464844 L 44.828125 194.089844 L 44.550781 193.976562 L 41.597656 198.636719 L 37.582031 194.886719 L 37.34375 195.066406 L 39.894531 199.945312 L 34.632812 201.570312 L 34.671875 201.867188 L 40.171875 202.085938 L 38.960938 207.453125 L 39.238281 207.566406 L 42.15625 202.914062 L 46.207031 206.65625 L 46.445312 206.476562 L 43.859375 201.601562 Z M 49.121094 199.976562 " fill-opacity="1" fill-rule="nonzero"/></g></g></g><g clip-path="url(#78b77d4d89)"><g clip-path="url(#801c16f8b5)"><g clip-path="url(#0fd82c3dc2)"><path fill="#ffffff" d="M 325.871094 199.96875 L 325.910156 199.675781 L 331.414062 199.457031 L 330.164062 194.082031 L 330.441406 193.964844 L 333.394531 198.625 L 337.410156 194.875 L 337.648438 195.058594 L 335.101562 199.9375 L 340.363281 201.5625 L 340.324219 201.855469 L 334.820312 202.074219 L 336.03125 207.445312 L 335.753906 207.558594 L 332.835938 202.902344 L 328.785156 206.648438 L 328.546875 206.46875 L 331.132812 201.59375 Z M 325.871094 199.96875 " fill-opacity="1" fill-rule="nonzero"/></g></g></g></svg>