<svg xmlns="http://www.w3.org/2000/svg" version="1.1" xmlns:xlink="http://www.w3.org/1999/xlink" xmlns:svgjs="http://svgjs.dev/svgjs" viewBox="0 0 19.479101888245626 19.479101888245626"><g transform="matrix(1,0,0,1,5.952514612057223,6.551952392737996)"><g><path d=" M -3.3583304884830705 1.5903556428227899 L -2.10464753120924 1.8856911175648914 L -2.0662539194927665 1.7227123331192933 L -3.3199368767665973 1.4273768583771917 L -3.3583304884830705 1.5903556428227899 M -2.3455548697919957 0.8224715433365403 Q -2.315264426392477 0.7832663263538407 -2.2863891027520378 0.7354979886743707 Q -2.2575137791115987 0.6877296509949005 -2.2320349648463442 0.6265858236397481 Q -2.1888625295635524 0.52298100506574 -2.1844719960794032 0.4311226792823655 Q -2.1800814625952545 0.339264353498991 -2.2078914697514067 0.2648850317625382 Q -2.235701476907559 0.1905057100260854 -2.289767485933373 0.13608249927900973 Q -2.3438334949591866 0.08165928853193405 -2.4185648395043726 0.05051851554106768 Q -2.4898993047520506 0.02079323223160423 -2.5651976589989096 0.0173232109471555 Q -2.6404960132457687 0.013853189662706544 -2.7090722711952573 0.042087991692209226 Q -2.777648529144746 0.07032279372171191 -2.8369550313237326 0.13132403632621825 Q -2.8962615335027193 0.1923252789307246 -2.9373107342634066 0.29083477855846995 L -3.1029230269875594 0.6882696563669602 L -1.9140152728595974 1.1836910448580156 L -1.8496104923557601 1.0291330368213805 L -2.3455548697919957 0.8224715433365403 M -2.963786901938536 0.5648524213211914 L -2.8894736936648777 0.3865162582019972 Q -2.8597484103554143 0.3151817929543195 -2.811623980721653 0.2714478968047065 Q -2.7634995510878912 0.22771400065509373 -2.7070251380386807 0.20938651662844188 Q -2.65055072498947 0.19105903260179002 -2.5913169948751005 0.19481163393126666 Q -2.5320832647607308 0.19856423526074307 -2.4811300752981036 0.2197965804817883 Q -2.431875325484231 0.24032118086213194 -2.3884949318326454 0.2773348303259917 Q -2.34511453818106 0.3143484797898515 -2.3192146282656902 0.36700158859052645 Q -2.29331471835032 0.4196546973912014 -2.290485958521455 0.4846209387618594 Q -2.2876571986925898 0.5495871801325176 -2.3195057165241577 0.6260169643264579 Q -2.341445806585904 0.6786685934378391 -2.364093271566029 0.7210586622036954 Q -2.386740736546154 0.7634487309695517 -2.415190895390919 0.7934540048677784 L -2.963786901938536 0.5648524213211914 M -1.3374905551578662 -0.6848653578864344 L -0.9241872461547387 -0.6211991504678579 L -0.8250457110723581 -0.7696109640862794 L -2.2292561231316483 -0.9862792457157741 L -2.280360007194731 -0.9097783108609176 L -1.5118819128801906 0.25856160036299164 L -1.4648663395421544 0.18818074029652368 L -1.6901073551931374 -0.15700890738792472 L -1.3374905551578662 -0.6848653578864344 M -1.427805027833732 -0.6987284609041693 L -1.7395387206185369 -0.23207275828954477 L -2.107975835438591 -0.7968356292567091 L -2.1038875247135445 -0.8029557040450976 L -1.427805027833732 -0.6987284609041693 M -0.39435152890089825 -1.1624470593900362 L -1.2285887860156885 -2.0065693484226097 L -0.8778527031308364 -2.353198162231546 L -0.9489892134274465 -2.4251775822265715 L -1.7695546013707388 -1.6142213648452173 L -1.6984180910741287 -1.5422419448501916 L -1.3476820081892764 -1.8888707586591278 L -0.5134447510744862 -1.0447484696265543 L -0.39435152890089825 -1.1624470593900362 M 0.5036511123795229 -2.281598282187056 Q 0.5421513556858197 -2.2123794403493315 0.604586577651739 -2.1714893259197243 Q 0.6670217996176583 -2.1305992114901167 0.7455778505691797 -2.119291883826076 Q 0.824133901520701 -2.1079845561620347 0.9142818753038391 -2.125037146076609 Q 1.0044298490869772 -2.142089735991183 1.0983555960277118 -2.1887563028418215 Q 1.1939291630902136 -2.236241581391594 1.2590908349645158 -2.297381157106067 Q 1.3242525068388176 -2.35852073282054 1.3573440666796537 -2.4283815420579113 Q 1.3904356265204894 -2.498242351295283 1.3898040558443419 -2.5739485063850838 Q 1.3891724851681946 -2.649654661474885 1.3523304587071643 -2.723806566954412 Q 1.301570333360856 -2.825971414503983 1.2181487974702772 -2.865680246640636 Q 1.1347272615796986 -2.905389078777289 1.0364077658904693 -2.910986217994391 Q 0.93808827020124 -2.916583357211492 0.8335452629805115 -2.9016243318005 Q 0.7290022557597831 -2.8866653063895074 0.6360043861149247 -2.8815516148151215 Q 0.5430065164700665 -2.8764379232407356 0.47063758851779686 -2.8939011837335302 Q 0.39826866056552723 -2.9113644442263253 0.363064057502765 -2.982220709462318 Q 0.3434149767235488 -3.0217683923847325 0.34352414232029105 -3.0649690877827522 Q 0.3436333079170333 -3.108169783180772 0.3647235890766853 -3.150494584900412 Q 0.3858138702363373 -3.1928193866200516 0.42747071274758236 -3.2330350287508614 Q 0.46912755525882743 -3.27325067088167 0.533392540007751 -3.3051804271478966 Q 0.6405008479226237 -3.358396687591607 0.7379912351892198 -3.3503330165536043 Q 0.8354816224558159 -3.3422693455156014 0.8969681736788604 -3.2515976519244045 L 1.0090199419590349 -3.307270047465517 Q 0.9688406883604731 -3.363327121776102 0.9100844706789072 -3.3947448696864226 Q 0.8513282529973413 -3.426162617596743 0.7818144192685414 -3.4337441557206834 Q 0.7123005855397415 -3.4413256938446244 0.63696739776726 -3.425469981308254 Q 0.5616342099947784 -3.409614268771883 0.48913012463701844 -3.3735909540099867 Q 0.41333039903572394 -3.3359302158498223 0.35477040437199014 -3.282179838874554 Q 0.29621040970825646 -3.2284294618992853 0.2631344449526696 -3.1647401805759166 Q 0.23005848019708264 -3.1010508992525483 0.22822871741407835 -3.028231028556714 Q 0.226398954631074 -2.955411157860881 0.26324098109210425 -2.8812592523813536 Q 0.31154497134101067 -2.7840378651970847 0.39045319616285307 -2.749277691787483 Q 0.4693614209846954 -2.7145175183778814 0.5639863173043225 -2.7122212177660643 Q 0.6586112136239495 -2.7099249171542468 0.759863778962893 -2.7253036951383054 Q 0.8611163443018366 -2.7406824731223645 0.9536944613736287 -2.742505722814965 Q 1.0462725784454205 -2.7443289725075664 1.121087244771593 -2.717807899706801 Q 1.1959019110977653 -2.691286826906036 1.2384749194527336 -2.605600180574138 Q 1.291691179896444 -2.498491872659265 1.2379810750865188 -2.4101684632973814 Q 1.1842709702765934 -2.321845053935498 1.054093180656979 -2.2571668297039116 Q 0.9502805129856411 -2.205587992658469 0.8741546053227736 -2.201665980100537 Q 0.798028697659906 -2.1977439675426047 0.7462419261444785 -2.2192695963605718 Q 0.6944551546290509 -2.240795225178539 0.6628619771478969 -2.275435836267899 Q 0.6312687996667428 -2.3100764473572593 0.6157028806596974 -2.337270677728169 L 0.5036511123795229 -2.281598282187056 M 1.6011268193755028 -3.1608305072728147 Q 1.6242758231888752 -3.0604245053483856 1.6890738728946675 -2.955458834987426 Q 1.7538719226004598 -2.8504931646264664 1.8586705350012784 -2.772688344474608 Q 1.963469147402097 -2.69488352432275 2.1054444290451184 -2.6605829207947536 Q 2.2474197106881393 -2.626282317266757 2.4249231783759697 -2.6672064490082548 Q 2.5450517878212686 -2.6949025785706824 2.6359476546419964 -2.7470154310632156 Q 2.7268435214627242 -2.799128283555749 2.793262967479478 -2.867313099980137 Q 2.859682413496233 -2.9354979164045245 2.901969081753262 -3.014169116266481 Q 2.9442557500102917 -3.092840316128438 2.964269828314028 -3.1739295599876076 Q 2.9842839066177635 -3.2550188038467778 2.9861616541866614 -3.332870779185028 Q 2.9880394017555583 -3.410722754523278 2.972744524236009 -3.4770624343662044 Q 2.949595520422636 -3.5774684362906335 2.882108024236725 -3.6818140440494496 Q 2.8146205280508143 -3.786159651808265 2.706235987009838 -3.8631377218239313 Q 2.597851445968861 -3.940115791839598 2.451393753525642 -3.9733829576973543 Q 2.3049360610824228 -4.006650123555111 2.125639629074514 -3.9653126167455177 Q 1.9481361613866834 -3.92438848500402 1.8353038220444255 -3.8322851039664405 Q 1.7224714827021677 -3.740181722928861 1.662110690121662 -3.625242878672217 Q 1.6017498975411562 -3.5103040344155723 1.5896571690175954 -3.3866667539664475 Q 1.5775644404940348 -3.263029473517323 1.6011268193755028 -3.1608305072728147 M 1.776837322743254 -3.201341263946216 Q 1.7479010679765388 -3.3268487663517528 1.762267359374627 -3.440624743040442 Q 1.7766336507727154 -3.5544007197291316 1.826508059915652 -3.6452067862260513 Q 1.8763824690585889 -3.736012852722971 1.9581093352823682 -3.799229642717722 Q 2.0398362015061475 -3.8624464327124732 2.1474140607108927 -3.8872489367982292 Q 2.2531989555955594 -3.9116380658158896 2.3570438964999663 -3.891205595369067 Q 2.460888837404373 -3.8707731249222452 2.5490726809075266 -3.8117969386687127 Q 2.6372565244106796 -3.75282075241518 2.7026771452561107 -3.6574399662567596 Q 2.7680977661015422 -3.5620591800983394 2.7970340208682574 -3.436551677692803 Q 2.825970275634973 -3.3110441752872664 2.808914537756766 -3.196648135996433 Q 2.791858799878559 -3.0822520967055995 2.7383984620954642 -2.9906192800724885 Q 2.684938124312369 -2.898986463439377 2.600521811608471 -2.835149610842482 Q 2.5161054989045732 -2.7713127582455868 2.4103206040199066 -2.7469236292279264 Q 2.3027427448151614 -2.7221211251421704 2.2015872503908733 -2.743173658191137 Q 2.100431755966585 -2.7642261912401027 2.0158338411035897 -2.824029127629827 Q 1.9312359262405945 -2.8838320640195514 1.868504751875282 -2.9798329127801155 Q 1.8057735775099695 -3.07583376154068 1.776837322743254 -3.201341263946216 M 3.480693428246439 -2.8470476189530363 L 3.4863901282288037 -4.135035020913674 L 3.6538284904836864 -4.134294449915966 L 3.6485793883570787 -2.9475060581093793 L 4.312812891368207 -2.944568188547045 L 4.31236529351245 -2.843369178392995 L 3.480693428246439 -2.8470476189530363 M 4.833534834810428 -4.07674487165438 L 4.666028200182792 -3.3034797377218306 Q 4.650056637346204 -3.229749806346866 4.6451602249215345 -3.137617998889466 Q 4.640263812496865 -3.0454861914320652 4.67765665446501 -2.957372314150757 Q 4.715049496433154 -2.869258436869449 4.810046482049741 -2.795023674636639 Q 4.90504346766633 -2.7207889124038296 5.088469150599167 -2.681054780468902 Q 5.203559775184477 -2.6561235604313 5.300366186398928 -2.672806640116377 Q 5.397172597613379 -2.6894897198014536 5.4710496073778145 -2.7393799696331125 Q 5.544926617142251 -2.789270219464772 5.5936116538562946 -2.866268396067548 Q 5.642296690570337 -2.943266572670324 5.662942857163976 -3.038575996155034 L 5.8405777999318875 -3.8585966963253653 L 5.7614529955294875 -3.8757369101012165 L 5.596673213093464 -3.115059813232685 Q 5.588103106205538 -3.0754974110314848 5.5775399331519235 -3.0354254136387993 Q 5.566976760098308 -2.995353416246114 5.549220423008112 -2.9568396201057787 Q 5.531464085917915 -2.9183258239654433 5.504011923433962 -2.8828537000516623 Q 5.47655976095001 -2.847381576137881 5.432023833879175 -2.8156101801984312 Q 5.352092895339524 -2.759500642112909 5.265716095544753 -2.7518543320738114 Q 5.1793392957499815 -2.7442080220347136 5.091223036301854 -2.7632959873760026 Q 5.015694813917745 -2.7796571005256787 4.962314510190655 -2.815695268819914 Q 4.908934206463565 -2.8517334371141496 4.866912075338623 -2.90978596243147 Q 4.833342388390028 -2.9547114398153926 4.819553902542032 -2.995351863755352 Q 4.805765416694038 -3.035992287695312 4.802571901744371 -3.0733962642521733 Q 4.7993783867947055 -3.110800240809035 4.80537110204731 -3.147155611305032 Q 4.811363817299915 -3.1835109818010285 4.819154823561666 -3.219476801983938 L 4.997179316642665 -4.041295793163415 L 4.833534834810428 -4.07674487165438 M 6.389886685510546 -2.2559362650034216 L 6.886938687763398 -3.333634528459585 L 7.334726493354486 -3.1271074949653763 L 7.377110772616358 -3.2190042461128012 L 6.329487809535715 -3.7021850296981325 L 6.287103530273844 -3.6102882785507076 L 6.734891335864932 -3.403761245056499 L 6.237839333612079 -2.3260629816003355 L 6.389886685510546 -2.2559362650034216 M 7.875194282619332 -2.8864788666658936 L 7.1438528827844126 -1.8262507040105616 L 7.281682543929605 -1.731176322032022 L 8.013023943764525 -2.7914044846873542 L 7.875194282619332 -2.8864788666658936 M 8.116184338176652 -1.9445773469707999 Q 8.041857107427532 -1.8732141605987833 7.984973703042341 -1.7637570571036205 Q 7.928090298657149 -1.6542999536084577 7.915037372097512 -1.5244309414915223 Q 7.901984445537875 -1.394561929374587 7.94534461590965 -1.2550864561711215 Q 7.988704786281426 -1.1156109829676562 8.11486470504624 -0.9842110571790343 Q 8.200245660169903 -0.8952838346756236 8.291597320252677 -0.8439741650204675 Q 8.382948980335453 -0.7926644953653116 8.475546499409703 -0.770609757522986 Q 8.568144018483954 -0.7485550196806604 8.6573684093098 -0.7525958217986387 Q 8.746592800135646 -0.7566366239166169 8.826471338813604 -0.7810384242328618 Q 8.906349877491564 -0.8054402245491068 8.974148626020494 -0.8437519159488734 Q 9.041947374549423 -0.8820636073486399 9.091056437722948 -0.9292142840587222 Q 9.165383668472067 -1.0005774704307386 9.22035555893658 -1.1120254818923958 Q 9.275327449401093 -1.2234734933540528 9.285831690733158 -1.3559970494263138 Q 9.296335932065224 -1.4885206054985747 9.249789905158982 -1.6313142586461975 Q 9.203243878252742 -1.7741079117938199 9.075809616874142 -1.9068351095601046 Q 8.949649698109326 -2.0382350353487264 8.81271685331232 -2.0878693542802784 Q 8.675784008515315 -2.13750367321183 8.546155197476196 -2.1303808543467695 Q 8.416526386437077 -2.123258035481709 8.304182613670255 -2.0702364557191557 Q 8.191838840903435 -2.0172148759566024 8.116184338176652 -1.9445773469707999 M 8.241069914327682 -1.8145046931598408 Q 8.33397895276408 -1.9037086761248614 8.439022729653756 -1.9497213715115917 Q 8.544066506543432 -1.9957340668983221 8.647599777622247 -1.9994837575149778 Q 8.75113304870106 -2.0032334481316334 8.847315413479224 -1.9654896286947992 Q 8.943497778257388 -1.9277458092579653 9.01995833508455 -1.8481094905981945 Q 9.095144549297922 -1.7698004439160866 9.130856645046611 -1.670171613664816 Q 9.1665687407953 -1.5705427834135453 9.161159850978008 -1.4645931505168504 Q 9.155750961160715 -1.3586435176201557 9.107415430584517 -1.2535672192274285 Q 9.059079900008319 -1.1484909208347016 8.96617086157192 -1.0592869378696812 Q 8.87326182313552 -0.9700829549046605 8.766306532325165 -0.9260611674844244 Q 8.65935124151481 -0.8820393800641884 8.553269285208424 -0.8809442334028584 Q 8.447187328902038 -0.8798490867415285 8.349093450203195 -0.9195838141448568 Q 8.250999571504352 -0.9593185415481851 8.175813357290977 -1.037627588230293 Q 8.099352800463818 -1.1172639068900638 8.065552218635808 -1.2149018291748401 Q 8.031751636807797 -1.3125397514596164 8.039709211852662 -1.4158348404009857 Q 8.047666786897526 -1.5191299293423548 8.097913831394404 -1.6222153197685876 Q 8.148160875891282 -1.7253007101948201 8.241069914327682 -1.8145046931598408 M 10.4521357105964 0.12100070813000863 L 9.586467395380833 0.5896815462617184 L 9.582963239581717 0.5832092597928169 L 9.9818467970767 -0.7940137932963138 L 9.977466602327805 -0.8021041513824406 L 8.82539961086335 -0.1783644191398661 L 8.86569740255318 -0.10393312474749955 L 9.731365717768746 -0.5726139628792093 L 9.734869873567863 -0.566141676410308 L 9.335986316072878 0.8110813766788225 L 9.340366510821774 0.8191717347649494 L 10.492433502286229 0.19543200252237503 L 10.4521357105964 0.12100070813000863 M 9.793387223441446 1.0389986642783247 Q 9.717968382143106 1.0631960851577429 9.665641711013269 1.1164133557422997 Q 9.613315039883432 1.1696306263268568 9.586840783169647 1.244450560378235 Q 9.560366526455862 1.3192704944296134 9.559432527639373 1.4110123913263464 Q 9.558498528822884 1.5027542882230795 9.58586503215124 1.60400096172685 Q 9.613711649573077 1.7070238926605112 9.660904558938363 1.7828982658417103 Q 9.708097468303649 1.8587726390229093 9.770123926565645 1.9049061677788248 Q 9.83215038482764 1.9510396965347403 9.906513963416236 1.965248108814016 Q 9.980877542004832 1.9794565210932915 10.060809126349913 1.957851386886695 Q 10.170937087003137 1.9280843130909395 10.226215718585943 1.8540558260718707 Q 10.281494350168748 1.7800273390528016 10.306239866714035 1.6847083450856657 Q 10.330985383259323 1.5893893511185295 10.3367917989027 1.4839412675068473 Q 10.342598214546076 1.3784931838951648 10.355798057797074 1.2862949315356484 Q 10.368997901048072 1.1940966791761318 10.400297057327354 1.1265497324190419 Q 10.431596213606634 1.0590027856619517 10.507975283091934 1.0383578796423152 Q 10.550605461409312 1.0268351413987968 10.592948065418556 1.0354034484495709 Q 10.6352906694278 1.043971755500345 10.672664998507443 1.0729432643641656 Q 10.710039327587088 1.1019147732279864 10.741317195975448 1.1506414122366486 Q 10.772595064363808 1.1993680512453107 10.791319514009524 1.2686420910110483 Q 10.822526930085719 1.3840988239539445 10.795525042017061 1.4781216745846697 Q 10.768523153948403 1.572144525215395 10.66756487833269 1.6146813161698361 L 10.700212636689326 1.7354668214024045 Q 10.763053477034402 1.7070450553643028 10.8053706752531 1.6555802835789404 Q 10.847687873471799 1.6041155117935775 10.8687374997932 1.5374329351207365 Q 10.889787126114602 1.4707503584478954 10.888993208342518 1.3937707345557824 Q 10.888199290570432 1.3167911106636692 10.867074270457316 1.238635783748478 Q 10.84498902215724 1.1569279419735055 10.803749198119133 1.0889746277548 Q 10.762509374081029 1.0210213135360946 10.706531859248924 0.9761118286445756 Q 10.650554344416822 0.9312023437530563 10.579503223641268 0.9151455745718755 Q 10.508452102865714 0.8990888053906947 10.428520518520632 0.9206939395972913 Q 10.32372133015708 0.9490206711126068 10.274179485485412 1.0195925013746054 Q 10.224637640813745 1.090164331636604 10.203852653749705 1.1825067829401494 Q 10.183067666685663 1.274849234243695 10.178317337331958 1.3771528176170613 Q 10.173567007978251 1.4794564009904276 10.157222664488938 1.5705985670602733 Q 10.140878320999624 1.661740733130119 10.10021776347741 1.729911992924718 Q 10.059557205955194 1.798083252719317 9.967191819600878 1.823049185580273 Q 9.851735086657982 1.854256601656468 9.775641944320965 1.784287796541057 Q 9.699548801983946 1.714318991425646 9.661619788599033 1.5739946544642798 Q 9.631372600709797 1.462090436381165 9.642436512750757 1.3866707715028994 Q 9.653500424791716 1.3112511066246335 9.684752063809604 1.2646833338767811 Q 9.716003702827493 1.2181155611289287 9.756161211205455 1.1939189638294356 Q 9.796318719583418 1.1697223665299425 9.826034981798081 1.159784169510893 L 9.793387223441446 1.0389986642783247" fill="#212245" fill-rule="nonzero"></path></g><g><path d=" M -2.2708521650454703 6.091373037350437 L -2.433191420755614 5.725052919891026 L -2.6555556789209627 5.739527100025806 L -2.693332738425839 5.654282795962924 L -1.7683094954916245 5.595784505120631 L -1.7279799319661486 5.686788559458031 L -2.3931582656033092 6.331629428246363 L -2.4309353251081856 6.246385124183481 L -2.2708521650454703 6.091373037350437 M -2.214759578747568 6.0375730395585006 L -1.8497715689624816 5.6856346280244345 L -2.355657800684674 5.719634824405049 L -2.214759578747568 6.0375730395585006 M -1.8952593329524217 7.158074005771752 L -1.9422500988435885 7.083434150995891 L -1.5750671244389556 6.276059948963546 L -2.202041904556183 6.670782382449349 L -2.2490326704473502 6.596142527673488 L -1.503700406328401 6.126906165417406 L -1.456709640437234 6.201546020193267 L -1.822826331202212 7.008248925570024 L -1.1969178347246394 6.614197788739809 L -1.1499270688334724 6.68883764351567 L -1.8952593329524217 7.158074005771752 M -0.7080733568620197 7.22710495971532 L -1.367502489717632 7.810933844185159 L -1.4259689016101764 7.7448965919678585 L -0.7665397687545642 7.16106770749802 L -0.7080733568620197 7.22710495971532 M -0.4985958394727099 8.052703108967949 Q -0.6002239214063088 8.051891590331229 -0.7081655061695116 7.949645041837853 L -0.8371465523696099 7.827469081350005 L -1.095362412124068 8.100067320836738 L -1.159395555627663 8.03941258867965 L -0.5537147302304608 7.3999959128366095 L -0.3607005405267676 7.582826605481545 Q -0.2536737149564732 7.684206657801248 -0.24690283253041478 7.78607493574474 Q -0.2401319501043565 7.8879432136882315 -0.31898310190857027 7.971186300242905 Q -0.3969677575391113 8.05351462760467 -0.4985958394727099 8.052703108967949 M -0.3848457637979821 7.908798575738472 Q -0.3241910316408947 7.844765432234877 -0.3286727779121097 7.778040750516936 Q -0.3331545241833247 7.711316068798996 -0.41182381477345564 7.636797397863146 L -0.540804860973554 7.514621437375299 L -0.7851567819492492 7.772583529775495 L -0.6561757357491509 7.8947594902633424 Q -0.5061552281121571 8.036864862745661 -0.3848457637979821 7.908798575738472 M 0.19722058774053797 8.31778649107222 Q 0.299329461633588 8.260046522486384 0.4130769332767463 8.26272980308835 Q 0.5268244049199046 8.265413083690317 0.6298406845280329 8.328808412664145 Q 0.7553917753004391 8.406071469850998 0.8083440522715977 8.520768485346476 Q 0.8612963292427562 8.635465500841953 0.8353764375630917 8.768941196065144 L 0.7473833653978152 8.714791019233333 Q 0.7620769067405027 8.618790855468834 0.7224968230223074 8.535254773008255 Q 0.6829167393041122 8.451718690547676 0.5895582359092459 8.394266673665143 Q 0.5069305949735597 8.343418336884051 0.417162542484417 8.34143680911324 Q 0.3273944899952741 8.33945528134243 0.24526163070342077 8.388775722586853 Q 0.16312877141156756 8.438096163831277 0.10435601850874732 8.533600839717979 Q 0.04558326560592707 8.629105515604682 0.038896627533406 8.72411517443623 Q 0.032209989460884936 8.819124833267777 0.07443154521965634 8.898368570744685 Q 0.11665310097842779 8.977612308221591 0.199280741914114 9.028460645002683 Q 0.2926392453089802 9.085912661885216 0.38471858583362717 9.084138387795313 Q 0.4767979263582742 9.08236411370541 0.5552162744458976 9.027059116795472 L 0.6432093466111738 9.081209293627284 Q 0.5363952682518849 9.16342393383361 0.4099357830368502 9.166972764507001 Q 0.28347629782181527 9.170521595180391 0.1589982932953271 9.093918906003681 Q 0.05598201368719885 9.030523577029852 0.002328030967148842 8.930189448049347 Q -0.05132595175290117 8.829855319068843 -0.04612502399754348 8.713218772693002 Q -0.04092409624218574 8.596582226317162 0.027093808802651165 8.486054342987607 Q 0.09511171384748801 8.375526459658055 0.19722058774053797 8.31778649107222 M 1.006543122393264 9.479746259669785 Q 0.9357165554555152 9.38931099046682 0.9210154157943575 9.27262405249747 Q 0.9063142761331998 9.155937114528118 0.9549162408858856 9.035601345023874 Q 1.0035182056385712 8.91526557551963 1.0951331341801929 8.841518237477409 Q 1.1867480627218143 8.767770899435188 1.3005142295866932 8.751890100435372 Q 1.4142803964515722 8.736009301435557 1.527606315305084 8.781780083775466 Q 1.6421005426003847 8.828022729850836 1.7129271095381338 8.9184579990538 Q 1.7837536764758823 9.008893268256765 1.7978706619161458 9.125344274358383 Q 1.8119876473564092 9.241795280460003 1.7633856826037233 9.362131049964248 Q 1.7147837178510374 9.482466819468492 1.6237529435303104 9.556450089378444 Q 1.5327221692095834 9.630433359288396 1.4189560023447045 9.646314158288211 Q 1.3051898354798255 9.662194957288028 1.1906956081845248 9.615952311212656 Q 1.0773696893310127 9.570181528872748 1.006543122393264 9.479746259669785 M 1.4000295723748621 9.56868731532396 Q 1.4894517902424336 9.555883763018267 1.5633616962905803 9.494010037674192 Q 1.6372716023387266 9.432136312330115 1.6792674747949308 9.328156861010914 Q 1.721263347251135 9.224177409691713 1.7108191136227577 9.128913649615196 Q 1.7003748799943805 9.033649889538681 1.644926851080143 8.962335234035582 Q 1.5894788221659053 8.891020578532482 1.4983507637063802 8.85421520716637 Q 1.407222705246855 8.817409835800259 1.3178004873792837 8.83021338810595 Q 1.2283782695117123 8.843016940411642 1.1547042953312971 8.904306511534823 Q 1.081030321150882 8.965596082658006 1.0390344486946779 9.069575533977208 Q 0.9970385762384737 9.17355498529641 1.0072468779991195 9.26940289959382 Q 1.0174551797597653 9.365250813891228 1.0729032086740031 9.43656546939433 Q 1.1283512375882407 9.50788012489743 1.2194792960477658 9.54468549626354 Q 1.310607354507291 9.581490867629652 1.4000295723748621 9.56868731532396 M 2.567036628745461 10.011436187383378 L 2.481058263283203 9.99176487140202 L 2.1709597827566967 9.160792326022118 L 2.0057207285132916 9.883010595905084 L 1.9197423630510335 9.863339279923727 L 2.1161745040648774 9.004783887664894 L 2.2021528695271355 9.024455203646253 L 2.512532368853375 9.854199486662408 L 2.6774904042970467 9.133209479143188 L 2.7634687697593048 9.152880795124545 L 2.567036628745461 10.011436187383378 M 3.031645256374539 10.050316584705866 Q 2.9684286233444004 10.014345243219445 2.935567996208322 9.95703475915044 Q 2.9027073690722434 9.899724275081436 2.9061027714616556 9.832983058111605 L 2.9989774722800138 9.841228514308836 Q 2.9995701106318116 9.905793879480761 3.045482785890473 9.958570828526653 Q 3.0913954611491343 10.011347777572546 3.1880353525412097 10.019927509021016 Q 3.2771448627858506 10.027838689967007 3.3332970146123477 9.986653012295589 Q 3.389449166438845 9.945467334624169 3.3956889711286413 9.875183777248115 Q 3.4007030998972274 9.818705918642356 3.374900828635087 9.78162889479045 Q 3.3490985573729466 9.744551870938542 3.3079306361680607 9.723820060509437 Q 3.266762714963175 9.703088250080334 3.1932417048287722 9.676321728662394 Q 3.1075043346998847 9.644675765833272 3.0580523816998504 9.617516193957368 Q 3.008600428699816 9.590356622081464 2.9764377396695783 9.539432880719067 Q 2.94427505063934 9.488509139356673 2.9515176810828536 9.406930010259465 Q 2.9575346356051573 9.339156579932554 2.9974119803524055 9.288936282483126 Q 3.0372893250996533 9.238715985033696 3.1039717668627587 9.214277139715023 Q 3.1706542086258644 9.18983829439635 3.253488401247643 9.197192349923611 Q 3.3752295631311666 9.208000583047008 3.4446131513652727 9.274245892947105 Q 3.5139967395993787 9.340491202847204 3.5169354300395534 9.43562379294385 L 3.4215506021720503 9.427155486579128 Q 3.417556436101137 9.37240777943629 3.371086635423744 9.32590614801326 Q 3.324616834746351 9.27940451659023 3.239272515075427 9.271827610895476 Q 3.160203513027365 9.264807830619455 3.103758104689821 9.302172605175285 Q 3.0473126963522765 9.339537379731112 3.0408500414949877 9.412331064156312 Q 3.0359473378101476 9.467553859237498 3.061805321614161 9.50400335132712 Q 3.087663305418175 9.540452843416741 3.129403045843474 9.561867898150004 Q 3.1711427862687724 9.583282952883268 3.2434087328786028 9.609938049217462 Q 3.3266359759583457 9.64136116187909 3.377287279941079 9.669259690601027 Q 3.4279385839238126 9.697158219322963 3.4601012729540503 9.74808196068536 Q 3.4922639619842886 9.799005702047756 3.4851327566245214 9.87932976762039 Q 3.4796729275209497 9.940827880324438 3.442138572197227 9.993153623228219 Q 3.4046042168735045 10.045479366131998 3.3375874998591595 10.07368340202439 Q 3.270570782844815 10.10188743791678 3.181461272600174 10.093976256970787 Q 3.0948618894046778 10.08628792619229 3.031645256374539 10.050316584705866 M 3.829236599223405 9.235185087908672 L 3.8542975863780446 9.7890183723209 Q 3.860221092432778 9.91992442136379 3.9253751763785445 9.980040660810282 Q 3.990529260324311 10.040156900256775 4.098778493186701 10.035258616403823 Q 4.20702772604909 10.03036033255087 4.265255897480541 9.965291683788585 Q 4.323484068911992 9.9002230350263 4.317503606068271 9.768058273973383 L 4.292442618913631 9.214224989561155 L 4.3805524596155765 9.210238014332008 L 4.405556489981229 9.762812586734208 Q 4.413131742916608 9.930221284067903 4.328208651071833 10.018570442363407 Q 4.243285559227058 10.106919600658909 4.101051102093917 10.113355717814533 Q 3.9588166449607773 10.119791834970156 3.8662613433916344 10.039473583921936 Q 3.7737060418224915 9.959155332873715 3.7661307888871116 9.791746635540019 L 3.74112675852146 9.23917206313782 L 3.829236599223405 9.235185087908672 M 4.825261486341791 9.9611491642902 L 5.137318181023211 9.909758436483456 L 5.148988585345858 9.980623901012702 L 4.7499041272074685 10.0463467043034 L 4.606788116303426 9.177312323497373 L 4.693815879760396 9.16298024801342 L 4.825261486341791 9.9611491642902 M 5.656902416980255 8.941594696772105 L 5.676148243777726 9.012094941813393 L 5.440337079329279 9.076468914204936 L 5.653036647901333 9.855618174057797 L 5.567950145265295 9.878845896054745 L 5.355250576693241 9.099696636201884 L 5.118223890778563 9.164402433193382 L 5.098978063981092 9.093902188152093 L 5.656902416980255 8.941594696772105 M 5.899720078346217 8.849770442685516 L 6.201494378412739 9.677197309193584 L 6.118633318819656 9.70741791148923 L 5.816859018753134 8.879991044981162 L 5.899720078346217 8.849770442685516 M 7.099994824419766 9.276725367810139 L 7.020586071543706 9.31511143255594 L 6.259126165349905 8.860298009205959 L 6.58156910921463 9.527331533364865 L 6.502160356338569 9.565717598110666 L 6.118848081234075 8.772764480105437 L 6.198256834110135 8.734378415359636 L 6.959168367950425 9.188057427954243 L 6.637273796439211 8.52215831455071 L 6.716682549315271 8.48377224980491 L 7.099994824419766 9.276725367810139 M 7.636034178247001 8.18463223576393 Q 7.555317056322705 8.134911517464026 7.463285891744848 8.138378179611307 Q 7.371254727166991 8.141844841758587 7.285450772513212 8.201633283499213 Q 7.204815730790383 8.25782001188197 7.1666535466232535 8.339697430622389 Q 7.128491362456123 8.421574849362809 7.139177977012938 8.516253727521109 Q 7.149864591569752 8.610932605679407 7.213254746668247 8.701905473264137 Q 7.276644901766742 8.792878340848867 7.362124033865031 8.836209437946946 Q 7.44760316596332 8.879540535045027 7.537630022483764 8.872095462510295 Q 7.627656879004208 8.864650389975564 7.708291920727036 8.808463661592807 Q 7.783758049518914 8.755878646567918 7.821543536656461 8.681174448815863 Q 7.859329023794007 8.606470251063806 7.8538882593166885 8.520421804930814 Q 7.84844749483937 8.434373358797822 7.797429679387563 8.350136603717125 L 7.493497599047671 8.561917349159824 L 7.452438066767964 8.502991741746989 L 7.832870058485924 8.237905638607828 L 7.869607534736188 8.290628550503524 Q 7.930710147590029 8.389338261790883 7.937855460243722 8.498770484682867 Q 7.945000772897416 8.60820270757485 7.897924922517736 8.707041230484847 Q 7.850849072138057 8.805879753394846 7.753673509036187 8.873591964522783 Q 7.653396598175745 8.943465203665443 7.538952182310119 8.953335167048124 Q 7.424507766444492 8.963205130430804 7.318762731039577 8.911727441212918 Q 7.213017695634662 8.860249751995033 7.138822400462559 8.753770145617452 Q 7.064627105290457 8.64729053923987 7.052956285228841 8.530261666908768 Q 7.041285465167227 8.413232794577667 7.090178697919637 8.309288615851685 Q 7.139071930672047 8.205344437125705 7.239348841532488 8.135471197983046 Q 7.35513249118578 8.054792818766778 7.482309418033883 8.052175859181226 Q 7.609486344881985 8.049558899595672 7.72080435031459 8.125564136694878 L 7.636034178247001 8.18463223576393 M 8.343729670997744 7.166190226218677 L 8.396607921183554 7.216634027198449 L 8.128733943566834 7.497435769564476 L 8.366686069402983 7.72443287397345 L 8.592813453105407 7.4873924421060245 L 8.645691703291218 7.5378362430857955 L 8.419564319588792 7.774876674953222 L 8.713129777516912 8.05492674246161 L 8.652249328058566 8.118745320272073 L 8.01497524392268 7.510810546395166 L 8.343729670997744 7.166190226218677 M 8.508857346596773 6.959604575394561 L 9.19289984264776 7.514391751883288 L 9.137341756304112 7.58289386164519 L 8.453299260253123 7.028106685156462 L 8.508857346596773 6.959604575394561 M 9.64713246883206 6.88106071589458 L 9.22016625883089 6.856972081287458 L 9.129570687945703 6.991922791311479 L 9.435040512186122 7.196991835485698 L 9.385880124884084 7.270220902940593 L 8.654635579870204 6.779319321167378 L 8.80211674177632 6.559632118802693 Q 8.884284817695441 6.437234963199511 8.985356692113262 6.413272436169412 Q 9.086428566531083 6.389309909139312 9.181626354222447 6.453218412631962 Q 9.261132198887761 6.506592547417033 9.286550459762022 6.589671763916276 Q 9.311968720636282 6.672750980415518 9.269012037187782 6.772908650851214 L 9.706124933594507 6.793185834948706 L 9.64713246883206 6.88106071589458 M 9.069941304446717 6.951892190222676 L 9.168964370297967 6.804387925777816 Q 9.22655225256607 6.718605303902082 9.21385215792091 6.647099278309801 Q 9.20115206327575 6.575593252717519 9.131061384426065 6.528539739156997 Q 9.05887844650624 6.48008164310213 8.991556939054238 6.495590902735978 Q 8.924235431602236 6.511100162369826 8.863838384345446 6.6010673023858395 L 8.76551760974137 6.7475254372956295 L 9.069941304446717 6.951892190222676 M 9.455099905712109 5.359595729991919 L 10.24280078478143 5.727540950253602 L 10.205473008812852 5.807452633637447 L 9.576453901034307 5.513629711370508 L 10.074292538980426 6.0882851209578135 L 10.047096587917606 6.146506490280329 L 9.289180201260459 6.134582563218573 L 9.91591611808518 6.427338977600695 L 9.878588342116604 6.507250660984539 L 9.090887463047283 6.139305440722856 L 9.130348254785492 6.054827375431363 L 9.955401152601903 6.068907240655969 L 9.41510586003149 5.445215390760323 L 9.455099905712109 5.359595729991919" fill="#64c6c4" fill-rule="nonzero"></path></g><g clip-path="url(#SvgjsClipPath1003)"><g clip-path="url(#SvgjsClipPath1001d1ee1d5d-1163-471e-98db-478049a82e41)"><path d=" M 3.3153679883742417 6.223367187386138 L 3.3153679883742417 0.40653911769354234 L 2.877301347267705 0.27711033736661483 L 2.877301347267705 6.243279307436431 Z" fill="#64c6c4" transform="matrix(1,0,0,1,0,0)" fill-rule="evenodd"></path></g><g clip-path="url(#SvgjsClipPath1001d1ee1d5d-1163-471e-98db-478049a82e41)"><path d=" M 2.7561692836284135 6.2490870091177655 L 2.7561692836284135 1.7265467426943801 L 2.7561692836284135 0.6620779916723284 L 2.408536854417003 0.5741327947835227 L 2.408536854417003 1.836893074639768 L 2.408536854417003 6.26485077082425 L 2.7561692836284135 6.2490870091177655 Z" fill="#a4cb6a" transform="matrix(1,0,0,1,0,0)" fill-rule="evenodd"></path></g><g clip-path="url(#SvgjsClipPath1001d1ee1d5d-1163-471e-98db-478049a82e41)"><path d=" M 5.2634370666281045 6.09393840705921 L 5.2634370666281045 6.269828800836826 L 5.529761672300833 6.281444204199495 L 7.574902335799943 6.375197102769632 L 5.529761672300833 6.126295602140945 L 5.529761672300833 0.7135176351355863 L 5.2634370666281045 0.621424079902972 L 4.634545941706292 0.40322043101847554 L 3.887841439820242 0.14353319869586997 L 3.473005605439065 -1.0763404623235122e-14 L 3.473005605439065 6.215900142367264 L 3.887841439820242 6.196817693985732 L 3.887841439820242 0.623913094909256 L 4.634545941706292 0.8412870721249804 L 5.262607394959387 1.0238148392526971 L 5.262607394959387 6.09393840705921 Z" fill="#212245" transform="matrix(1,0,0,1,0,0)" fill-rule="evenodd"></path></g><g clip-path="url(#SvgjsClipPath1001d1ee1d5d-1163-471e-98db-478049a82e41)"><path d=" M 2.311465269171812 6.093938407059212 L 2.311465269171812 6.269828800836824 L 0 6.375197102769637 L 2.030206573461387 6.127954945478468 L 2.030206573461387 1.9563657949415418 L 2.030206573461387 0.813907907055832 L 2.311465269171812 0.876133282213006 L 2.311465269171812 1.8675909263839734 L 2.311465269171812 6.093938407059212 Z" fill="#dceac6" transform="matrix(1,0,0,1,0,0)" fill-rule="evenodd"></path></g></g><g><path d=" M -1.6829557462814693 3.1875985513848186 A 5.46999207834706 5.46999207834706 0 0 1 9.257028410412651 3.1875985513848186 A 5.46999207834706 5.46999207834706 0 0 1 -1.6829557462814684 3.1875985513848186 Z M -1.6329557462814694 3.1875985513848177 A 5.419992078347059 5.419992078347059 0 0 0 9.207028410412649 3.1875985513848177 A 5.419992078347059 5.419992078347059 0 0 0 -1.6329557462814694 3.1875985513848177 Z" fill="#212245" fill-rule="nonzero"></path></g><g><path d=" M -4.3542561213700886 3.1875985513848173 A 8.141292453435678 8.141292453435678 0 0 1 11.928328785501268 3.1875985513848173 A 8.141292453435678 8.141292453435678 0 0 1 -4.3542561213700886 3.1875985513848173 Z M -4.304256121370088 3.1875985513848173 A 8.091292453435678 8.091292453435678 0 0 0 11.878328785501267 3.1875985513848173 A 8.091292453435678 8.091292453435678 0 0 0 -4.304256121370088 3.1875985513848173 Z" fill="#212245" fill-rule="nonzero"></path></g><g transform="matrix(-0.1294863559605549,-0.9915812037448353,0.9915812037448353,-0.1294863559605549,-7.00841908846926,1.4365540378156028)"><g clip-path="url(#SvgjsClipPath1004)"><path d=" M -2.8804399202024253 4.138450520676081 L -2.8668572230595677 4.138450520676081 L -2.824411294488139 3.890566297818938 L -2.5884119316309966 3.9788538292475093 L -2.5816205830595678 3.9669689692475094 L -2.7751740173452824 3.805674440676081 L -2.5816205830595678 3.6460777492475094 L -2.5884119316309966 3.6341928892475095 L -2.824411294488139 3.7207825835332238 L -2.8668572230595677 3.472898360676081 L -2.8804399202024253 3.472898360676081 L -2.922885848773854 3.7207825835332238 L -3.1588841504827823 3.6341928892475095 L -3.1656754990542106 3.6460777492475094 L -2.9721231259167107 3.805674440676081 L -3.1656754990542106 3.9669689692475094 L -3.1588841504827823 3.9788538292475093 L -2.922885848773854 3.890566297818938 L -2.8804399202024253 4.138450520676081 Z" fill="#212245" transform="matrix(1,0,0,1,0,0)" fill-rule="nonzero"></path></g></g><g transform="matrix(0.1294863559605549,-0.9915812037448353,-0.9915812037448353,-0.1294863559605549,12.857560699978654,14.645738873139843)"><g clip-path="url(#SvgjsClipPath1005)"><path d=" M 10.440894515583608 4.138450520676081 L 10.454477212726465 4.138450520676081 L 10.496923141297893 3.890566297818938 L 10.732922504155036 3.9788538292475093 L 10.739713852726466 3.9669689692475094 L 10.546160418440751 3.805674440676081 L 10.739713852726466 3.6460777492475094 L 10.732922504155036 3.6341928892475095 L 10.496923141297893 3.7207825835332238 L 10.454477212726465 3.472898360676081 L 10.440894515583608 3.472898360676081 L 10.39844858701218 3.7207825835332238 L 10.162450285303251 3.6341928892475095 L 10.155658936731822 3.6460777492475094 L 10.349211309869322 3.805674440676081 L 10.155658936731822 3.9669689692475094 L 10.162450285303251 3.9788538292475093 L 10.39844858701218 3.890566297818938 L 10.440894515583608 4.138450520676081 Z" fill="#212245" transform="matrix(1,0,0,1,0,0)" fill-rule="nonzero"></path></g></g></g><defs><clipPath id="SvgjsClipPath1003"><path d=" M 0 0 h 7.574072664131181 v 6.375197102769637 h -7.574072664131181 Z"></path></clipPath><clipPath id="SvgjsClipPath1001d1ee1d5d-1163-471e-98db-478049a82e41"><path d=" M 0 0 L 7.574072664131181 0 L 7.574072664131181 6.375197102769637 L 0 6.375197102769637 Z"></path></clipPath><clipPath id="SvgjsClipPath1004"><path d=" M -3.368833385827425 3.2994359992475095 h 0.990405 v 0.990405 h -0.990405 Z"></path></clipPath><clipPath id="SvgjsClipPath1005"><path d=" M 9.952501049958608 3.2994359992475095 h 0.990405 v 0.990405 h -0.990405 Z"></path></clipPath></defs></svg>